<?xml version="1.0" encoding="UTF-8" standalone="no"?>
<!DOCTYPE svg PUBLIC "-//W3C//DTD SVG 1.1//EN" "http://www.w3.org/Graphics/SVG/1.1/DTD/svg11.dtd">
<svg width="100%" height="100%" viewBox="0 0 6605 2078" version="1.1" xmlns="http://www.w3.org/2000/svg" xmlns:xlink="http://www.w3.org/1999/xlink" xml:space="preserve" xmlns:serif="http://www.serif.com/" style="fill-rule:evenodd;clip-rule:evenodd;stroke-linejoin:round;stroke-miterlimit:2;">
    <g transform="matrix(1,0,0,1,-831.651068,-2981.362544)">
        <g id="Gemini_Generated_Image_4nayil4nayil4nay.png" transform="matrix(5.219958,0,0,5.219958,1460.354145,2602.923628)">
            <g transform="matrix(0.191572,0,0,0.191572,-267.68087,-510.605862)">
                <rect x="768.58" y="3043.78" width="6604.414" height="2077.793" style="fill:white;"/>
            </g>
            <path d="M200.234,128.309C203.234,124.92 203.696,125.458 220.6,113.648C220.617,113.636 224.906,110.91 228.402,108.359C234.748,103.729 234.792,103.676 235.468,103.709C235.655,103.718 235.669,104.029 235.798,104.165C235.936,104.311 236.206,104.356 236.261,104.549C236.401,105.043 234.383,111.092 233.178,117.434C232.979,118.483 232.756,118.424 230.074,130.411C229.892,131.224 229.829,131.205 227.616,140.528C225.672,148.714 224.385,149.847 226.379,149.964C227.119,150.008 227.097,149.82 234.312,145.192C239.592,141.806 240.885,140.743 247.581,136.625C247.921,136.416 247.892,136.376 251.756,133.898C253.236,132.949 255.408,130.931 255.883,135.445C255.887,135.488 258.335,151.233 256.039,167.434C255.668,170.051 254.356,176.633 254.197,177.43C253.856,179.142 251.208,187.902 251.046,188.325C247.416,197.804 244.11,203.205 243.365,204.422C234.807,218.404 227.06,225.536 216.593,233.627C206.117,241.726 183.025,254.013 180.692,255.773C174.981,260.079 164.2,268.633 158.181,285.39C156.407,290.328 156.258,290.279 155.184,295.423C154.633,298.061 152.8,303.814 153.449,317.503C153.518,318.961 153.833,325.607 156.538,335.489C156.847,336.617 159.222,343.767 159.867,345.346C162.16,350.95 169.581,369.53 188.632,385.33C198.981,393.912 208.255,398.978 219.4,402.796C220.339,403.118 222.783,403.955 231.471,405.66C231.68,405.701 240.185,406.9 246.531,406.166C247.815,406.018 248.309,405.34 249.038,406.736C249.164,406.979 249.48,407.188 249.433,407.458C249.399,407.659 249.04,407.584 248.872,407.698C248.453,407.983 248.557,408.134 247.552,408.571C240.297,411.725 223.306,423.035 217.359,425.131C214.177,426.252 203.861,429.926 190.577,425.254C185.224,423.371 181.397,420.165 155.806,406C154.006,405.004 154.101,404.876 152.293,403.881C144.46,399.572 144.597,399.373 136.745,395.073C117.008,384.263 107.292,373.159 105.194,370.761C101.289,366.298 99.036,364.172 92.21,352.659C85.764,341.79 82.946,330.933 82.756,330.406C81.45,326.784 78.805,316.533 77.905,307.445C77.747,305.852 75.118,294.972 76.158,268.484C76.483,260.202 78.745,249.3 79.937,245.643C80.246,244.694 84.149,231.782 93.294,222.298C99.172,216.202 99.094,216.067 108.221,210.074C109.035,209.54 110.99,208.256 118.75,203.963C150.121,186.606 164.287,172.557 164.943,171.997C170.335,167.393 177.062,159.982 177.461,159.465C178.086,158.653 178.321,158.855 185.733,149.678C194.556,138.754 197.07,133.08 200.234,128.309ZM130.032,320.389C130.409,318.97 130.384,318.981 130.781,317.572C131.216,316.03 131.728,314.421 131.128,313.846C130.524,313.265 128.611,314.196 128.414,314.293C121.334,317.741 119.179,317.965 121.222,320.688C125.611,326.539 125.746,326.429 126.127,326.938C126.725,327.734 126.511,328.097 127.518,328.159C128.709,328.232 128.524,327.767 128.764,326.599C129.403,323.486 129.323,323.49 130.032,320.389ZM195.248,412.811C202.407,418.998 202.263,419.18 202.599,419.336C204.053,420.01 204.584,418.751 204.652,418.591C205.718,416.063 205.488,415.99 207.784,409.576C208.544,407.452 207.746,407.08 205.501,407.199C204.318,407.261 202.123,407.427 198.503,407.592C194.133,407.792 191.223,407.597 190.874,407.952C190.83,407.996 190.777,409.202 190.82,409.293C191.013,409.702 191.255,409.45 195.248,412.811ZM219.609,154.603C220.151,153.83 220.36,153.926 221.117,151.376C221.208,151.071 221.287,150.763 221.378,150.459C222.366,147.179 221.915,146.926 219.377,144.635C211.271,137.318 211.251,137.36 208.739,135.042C208.628,134.94 207.593,133.985 206.868,134.807C206.658,135.045 206.326,137.247 206.294,137.462C205.752,141.057 205.587,141.008 204.959,144.577C203.648,152.03 203.809,152.048 202.186,159.428C201.299,163.461 201.514,163.484 200.671,167.51C200.489,168.382 200.257,168.507 200.926,169.065C201.721,169.727 201.823,169.302 202.549,168.583C205.399,165.761 217.016,156.872 219.609,154.603ZM209.954,186.575C210.869,182.465 211.141,181.163 210.927,180.402C210.613,179.289 210.443,179.348 209.355,178.963C209.033,178.849 201.134,177.259 200.528,177.209C197.973,176.995 198.171,177.946 194.327,185.402C188.656,196.403 188.663,196.388 188.185,197.351C186.181,201.384 186.007,201.284 185.843,201.638C185.776,201.783 185.15,203.14 186.49,203.526C187.182,203.726 187.197,203.568 195.497,203.415C205.469,203.231 206.406,203.568 207.226,202.33C207.895,201.321 209.418,190.09 209.954,186.575ZM188.665,234.099C193.523,236.05 196.658,237.353 197.555,236.57C198.222,235.988 198.122,234.932 199.791,229.592C202.47,221.023 202.108,220.932 205.033,212.428C205.136,212.127 205.307,211.824 205.282,211.507C205.269,211.349 205.031,211.309 204.932,211.186C204.767,210.979 204.746,210.608 204.496,210.523C203.96,210.343 203.223,211.267 201.539,212.555C199.482,214.129 185.355,224.435 183.657,225.712C183.387,225.916 180.815,227.851 180.254,228.232C180.087,228.346 177.918,229.823 179.401,230.614C179.511,230.672 183.42,232.093 188.665,234.099ZM224.175,139.415C227.595,124.649 227.738,124.706 228.021,123.421C229.238,117.885 229.612,117.979 229.61,117.488C229.6,115.202 227.523,117.155 227.393,117.278C225.675,118.893 210.057,129.484 209.876,129.778C209.441,130.483 209.801,131.159 209.857,131.264C209.884,131.314 215.682,136.192 221.39,141.665C221.501,141.771 222.435,142.667 223.234,142.215C223.598,142.008 223.963,140.525 224.002,140.37C224.079,140.056 224.098,139.729 224.175,139.415ZM170.475,234.761C170.228,234.884 169.914,234.821 169.667,234.945C169.059,235.248 169.203,235.48 162.426,239.376C158.545,241.608 158.608,241.684 154.718,243.88C154.532,243.985 147.576,248.145 146.582,248.606C145.924,248.91 145.729,248.835 145.706,249.558C145.662,250.884 146.785,250.695 153.467,252.619C157.758,253.854 162.671,255.36 163.469,255.604C166.813,256.629 166.319,254.793 167.236,251.428C169.671,242.503 169.259,242.418 170.21,239.405C170.402,238.796 170.624,238.196 170.827,237.59C170.881,237.428 171.431,235.791 171.345,235.521C171.317,235.433 171.281,235.465 170.475,234.761ZM125.451,274.954C126.574,275.087 138.102,276.45 139.499,276.476C140.993,276.505 141.185,274.983 140.654,271.48C140.498,270.45 140.036,267.402 139.234,258.532C139.072,256.746 139.15,256.744 139.128,256.589C139.018,255.796 139.057,255.796 139.027,255.734C138.975,255.631 137.882,254.984 137.757,254.984C137.715,254.985 136.116,256.787 135.975,256.945C134.997,258.047 133.471,259.765 123.293,270.304C120.945,272.735 120.633,272.617 120.642,273.5C120.655,274.725 122.923,274.726 125.451,274.954ZM205.136,224.38C203.882,228.466 204.002,228.489 202.577,232.512C202.257,233.414 201.952,233.595 202.725,234.176C203.781,234.971 203.821,234.137 206.806,231.928C208.604,230.598 208.776,230.852 213.787,226.873C218.058,223.482 218.098,223.554 220.46,221.457C222.711,219.457 224.319,218.884 221.947,217.04C216.841,213.068 216.756,213.213 211.628,209.239C209.363,207.484 209.007,211.099 208.878,211.603C208.37,213.599 207.5,216.032 206.327,220.452C205.798,222.446 205.764,222.423 205.136,224.38ZM186.639,237.151C183.067,235.797 183.036,235.916 179.504,234.49C178.15,233.943 176.266,232.867 175.185,234.258C174.789,234.767 174.935,234.811 174.596,236.52C173.854,240.263 173.642,240.202 172.664,244.539C170.766,252.949 170.227,252.849 170.331,253.589C170.565,255.246 174.125,251.947 174.581,251.627C181.305,246.923 188.191,243.344 188.356,243.249C191.895,241.206 191.994,241.415 192.29,241.221C192.462,241.108 194.331,239.882 191.361,238.83C188.993,237.991 188.982,238.066 186.639,237.151ZM148.899,361.395C151.033,367.854 150.84,367.888 152.792,374.4C153.546,376.917 153.579,378.472 154.33,378.825C155.344,379.303 155.409,378.994 156.133,378.135C162.835,370.194 163.014,370.297 163.303,369.443C163.739,368.154 161.29,366.554 159.759,365.209C152.872,359.159 152.705,359.37 150.62,357.335C150.537,357.255 150.001,356.732 149.597,356.322C149.477,356.199 148.267,354.969 147.582,355.578C146.904,356.179 147.407,356.339 148.899,361.395ZM126.553,250.852C134.213,249.292 137.389,249.42 138.421,248.425C138.944,247.921 139.56,245.778 139.629,245.538C142.479,235.619 145.305,232.069 143.503,231.958C143.13,231.935 141.624,233.325 141.475,233.462C135.622,238.865 134.995,238.677 126.175,246.127C123.321,248.538 122.018,249.118 120.377,250.428C119.853,250.847 119.623,250.871 119.934,251.464C120.381,252.313 120.563,252.213 121.491,252.01C124.04,251.453 123.988,251.285 126.553,250.852ZM230.063,199.47C229.68,204.521 229.75,204.507 228.992,209.506C228.965,209.681 228.679,211.563 229.403,211.673C231.112,211.932 230.808,211.153 231.725,209.692C232.034,209.201 232.056,209.228 235.692,203.616C239.512,197.721 243.25,188.914 243.812,187.591C244.422,186.154 245.36,185.93 244.15,184.925C243.487,184.374 243.392,184.526 242.619,184.89C239.41,186.401 239.549,186.648 236.326,188.109C235.934,188.287 231.979,190.079 231.524,190.527C230.241,191.791 230.333,193.287 230.063,199.47ZM86.066,249.39C85.234,252.052 84.254,255.177 84.486,255.506C85.249,256.589 86.608,255.006 86.729,254.864C88.801,252.45 100.524,241.734 101.182,241.15C103.106,239.446 103.161,239.516 103.258,239.316C103.342,239.141 103.308,237.879 103.229,237.767C103.039,237.499 94.101,234.517 93.509,234.563C93.35,234.575 92.604,234.633 91.927,235.773C87.704,242.896 86.356,248.24 86.066,249.39ZM162.38,205.42C157.12,214.571 157.05,214.518 155.667,216.576C155.241,217.21 154.698,217.78 154.399,218.482C153.926,219.593 154.33,219.923 155.528,219.7C155.711,219.666 155.746,219.659 157.391,218.295C159.171,216.819 173.123,208.421 173.358,208.272C176.058,206.551 176.798,206.891 176.619,205.463C176.51,204.594 175.159,204.622 172.441,203.683C169.898,202.805 169.961,202.666 167.398,201.848C164.398,200.89 164.385,202.474 162.38,205.42ZM173.317,194.261C172.047,195.271 168.849,197.351 168.881,197.661C168.91,197.95 169.56,198.936 169.747,199.027C170.038,199.166 170.101,198.977 173.592,200.263C174.349,200.542 180.116,202.431 180.5,202.428C182.123,202.415 182.715,199.602 183.817,197.676C185.45,194.823 188.174,188.675 191.439,183.484C191.525,183.348 192.357,182.025 192.152,181.602C191.78,180.832 190.632,181.473 190.517,181.537C190.242,181.691 189.732,182.374 186.636,184.703C185.563,185.51 177.811,190.828 173.317,194.261ZM156.548,264.561C157.774,263.599 162.118,260.292 162.121,260.272C162.142,260.086 161.561,258.91 161.333,258.742C160.543,258.159 160.424,258.439 149.579,255.228C143.344,253.383 143.198,253.487 142.743,253.811C141.964,254.366 142.398,254.585 142.724,258.475C143.276,265.044 143.392,265.02 144.149,271.577C144.398,273.732 145.21,274.39 146.769,272.881C148.052,271.639 153.841,266.63 156.548,264.561ZM201.411,206.695C199.954,206.758 199.967,206.699 198.5,206.821C194.503,207.153 194.516,206.901 190.503,207.04C185.308,207.22 183.627,205.953 182.642,209.543C181.599,213.344 181.068,213.997 180.347,216.452C178.158,223.899 177.513,223.8 177.749,224.428C177.875,224.765 178.326,224.908 178.452,225.245C180.037,224.103 180.039,224.125 180.164,224.012C181.628,222.689 181.634,222.709 187.443,218.429C198.565,210.233 198.604,210.324 201.447,208.458L201.411,206.695ZM158.262,358.418C158.179,358.136 158.381,357.818 158.298,357.536C158.117,356.922 157.765,357.11 154.573,350.464C151.852,344.799 148.612,332.924 148.239,329.555C147.921,326.689 147.452,320.869 147.178,320.732C146.948,320.617 146.758,321.085 146.502,321.1C146.28,321.113 146.098,320.7 145.903,320.807C144.863,321.376 145.418,336.204 145.372,343.504C145.339,348.692 145.868,348.801 149.805,352.147C152.789,354.683 152.901,354.54 155.58,357.396C156.411,358.283 156.309,358.561 157.526,358.607C157.779,358.617 158.009,358.408 158.262,358.418ZM226.909,169.41C229.225,181.068 229.52,185.263 230.356,185.649C231.303,186.088 232.297,186.123 236.636,183.765C237.19,183.465 239.946,182.334 243.503,180.504C243.657,180.425 244.999,179.734 244.408,178.54C244.198,178.116 229.665,164.522 227.667,162.25C226.462,160.879 225.372,160.655 225.374,162.478C225.375,163.046 225.499,163.025 226.909,169.41ZM200.757,139.707C199.465,142.402 199.828,142.908 190.765,154.705C185.57,161.467 183.95,161.549 185.47,163.526C185.585,163.676 192.191,168.471 192.403,168.631C194.874,170.491 196.312,171.631 196.813,168.582C197.311,165.547 197.523,165.605 197.995,162.563C198.387,160.035 200.605,147.466 201.659,143.517C201.74,143.215 202.553,140.17 202.192,139.646C202.008,139.378 201.538,139.398 201.477,139.4C201.072,139.417 201.176,139.689 200.757,139.707ZM112.289,285.375C107.474,293.687 107.67,293.787 105.425,297.461C103.837,300.059 103.729,300.028 103.767,300.426C103.788,300.639 104.092,300.705 104.247,300.852C104.76,301.338 104.833,301.095 105.51,300.884C110.413,299.357 110.47,299.629 115.436,298.26C122.352,296.354 124.4,297.362 123.563,294.478C123.294,293.55 122.927,293.734 118.107,283.702C118.052,283.588 116.477,280.695 116.387,280.635C115.169,279.82 114.454,281.256 114.377,281.41C113.56,283.049 113.569,283.041 112.289,285.375ZM176.157,178.323C171.889,187.146 171.391,187.904 170.88,188.681C170.474,189.298 169.997,189.877 169.694,190.55C169.644,190.661 169.099,191.872 170.424,191.89C171.385,191.903 172.62,189.983 180.562,184.588C181.049,184.257 188.658,178.811 188.7,178.779C191.163,176.925 193.565,175.881 193.507,174.5C193.45,173.151 190.507,171.969 186.309,168.767C184.811,167.624 182.501,165.429 181.327,167.367C181.14,167.677 176.354,177.917 176.157,178.323ZM250.065,148.509C250.042,148.025 249.803,142.887 249.768,142.46C249.75,142.236 249.527,139.463 247.306,141.118C245.591,142.397 231.968,150.951 230.239,152.112C227.901,153.68 224.682,154.454 227.118,156.829C227.889,157.581 232.537,162.113 236.82,166.165C242.656,171.685 242.714,171.604 244.96,174.003C246.386,175.526 247.051,175.183 247.23,175.091C247.639,174.88 247.976,174.706 248.784,169.553C250.445,158.953 250.084,151.533 250.065,148.509ZM115.143,258.523C115.674,263.271 115.913,263.529 116.316,268.528C116.391,269.455 116.455,273.01 118.839,269.927C119.309,269.319 130.587,257.282 132.62,255.592C133.194,255.114 133.16,255.108 133.732,254.606C133.865,254.489 134.13,254.485 134.179,254.314C134.247,254.074 133.626,252.952 133.434,252.947C132.55,252.922 132.696,253.771 122.564,254.985C116.37,255.727 115.956,256.139 115.548,256.544C115.272,256.818 115.164,257.348 115.148,257.423C115.035,257.977 115.256,257.97 115.143,258.523ZM110.146,229.485C109.897,232.126 109.905,232.151 109.976,232.371C110.011,232.482 111.196,233.07 111.352,233.044C111.954,232.94 111.725,232.544 117.601,228.657C118.231,228.241 122.406,225.479 125.395,223.348C125.733,223.106 128.347,221.54 128.386,221.426C128.55,220.945 127.887,219.916 127.413,219.796C126.957,219.681 126.921,219.962 121.578,219.062C121.006,218.966 121.033,218.844 114.479,217.631C112.983,217.355 110.814,216.634 110.658,219.512C110.388,224.512 110.434,224.495 110.146,229.485ZM87.656,258.662C84.708,261.468 83.258,262.476 85.626,264.347C85.854,264.528 89.949,267.488 90.326,267.76C90.486,267.875 91.921,268.913 92.519,268.897C93.556,268.869 93.516,268.653 93.895,267.7C94.14,267.083 94.436,265.692 95.789,262.624C97.79,258.089 100.192,251.056 101.632,248.552C101.756,248.336 103.041,246.102 102.457,245.546C101.835,244.953 100.88,245.802 100.777,245.894C100.499,246.14 100.722,246.34 87.656,258.662ZM136.435,365.568C146.757,374.762 146.488,375.043 147.708,376.193C147.83,376.308 150.22,378.562 149.691,375.508C149.577,374.854 149.286,374.954 147.133,367.606C146.106,364.102 145.974,364.165 145.08,360.622C144.841,359.676 143.065,353.82 143.055,353.807C142.946,353.68 141.765,353.506 141.543,353.613C141.27,353.744 136.3,358.968 135.124,360.164C134.099,361.207 133.56,361.007 133.651,362.479C133.712,363.451 135.487,364.719 136.435,365.568ZM127.902,349.479C127.729,345.987 127.738,345.999 127.483,342.501C127.216,338.839 127.462,338.752 126.918,338.114C125.94,336.968 125.679,337.558 124.418,338.361C114.905,344.425 114.81,344.575 114.716,345.536C114.647,346.234 114.567,346.41 117.715,349.262C119.833,351.18 125.222,355.721 126.315,356.829C126.422,356.939 127.519,358.051 128.191,357.245C128.463,356.918 128.329,355.638 128.315,355.499C128,352.484 127.989,352.498 127.902,349.479ZM148.903,291.606C149.589,289.481 149.771,288.839 149.84,288.596C152.104,280.626 153.037,280.819 154.86,276.468C155.276,275.476 155.563,274.981 154.482,274.927C153.77,274.891 151.734,277.297 151.53,277.537C151.201,277.926 150.334,278.951 147.096,282.103C143.293,285.804 143.897,286.282 139.496,299.498C138.735,301.782 136.914,304.574 138.442,304.66C139.689,304.73 139.564,304.347 140.504,303.506C142.411,301.798 142.461,301.873 146.145,299.064C147.889,297.734 147.912,295.809 148.903,291.606ZM168.008,232.164C167.419,230.884 167.482,230.845 167.375,230.788C167.309,230.754 167.315,230.757 166.452,230.7C159.922,230.273 158.355,229.584 154.426,228.913C150.897,228.31 149.432,227.411 148.474,230.492C146.919,235.496 146.79,235.432 145.186,240.409C143.818,244.657 142.283,245.98 144.468,245.842C144.864,245.817 147.443,243.999 147.682,243.866C156.976,238.663 156.737,238.292 168.008,232.164ZM85.33,290.395C84.572,291.939 83.897,291.895 84.502,293.499C84.676,293.96 86.04,294.616 90.31,296.872C92.495,298.026 92.482,298.024 94.618,299.271C96.465,300.349 97.188,299.547 96.762,297.465C96.348,295.446 95.389,292.225 94.025,281.591C93.996,281.36 93.696,279.025 93.289,278.773C93.156,278.691 92.019,278.824 91.943,278.921C91.692,279.242 91.964,279.398 87.65,286.592C87.078,287.546 85.844,289.632 85.33,290.395ZM114.361,235.291C111.264,237.461 110.025,237.371 110.896,241.413C111.072,242.232 111.087,242.211 112.266,246.578C112.624,247.902 112.128,248.262 113.354,248.876C114.056,249.227 114.214,249.282 114.6,248.617C115.503,247.058 122.465,235.055 126.494,229.497C126.649,229.283 128.146,227.218 128.088,226.609C128.019,225.875 126.598,226.383 126.476,226.426C125.826,226.659 126.077,227.021 119.581,231.611C119.163,231.906 114.785,235 114.361,235.291ZM173.045,227.197C175.005,222.43 174.544,222.292 176.254,217.413C176.887,215.605 177.338,213.781 177.834,212.554C178.468,210.989 178.61,211.027 178.571,210.484C178.557,210.296 177.679,209.58 177.528,209.616C176.756,209.799 177.073,210.333 169.249,215.089C164.111,218.212 158.877,221.791 155.444,223.431C155.291,223.505 153.674,224.277 154.619,225.385C154.866,225.673 156.274,225.798 156.421,225.811C161.321,226.245 169.443,228.249 171.459,228.073C171.842,228.039 172.517,227.667 172.603,227.619C172.876,227.468 172.765,227.352 173.045,227.197ZM221.478,197.472C213.914,203.369 212.756,203.851 212.863,205.357C212.913,206.074 219.495,210.356 222.775,213.131C222.897,213.235 224.013,214.179 224.508,214.125C224.661,214.109 225.444,214.024 225.542,212.509C225.589,211.79 225.565,211.796 225.939,203.516C226.139,199.086 227.143,195.085 226.467,194.533C225.794,193.983 224.809,194.721 224.694,194.807C224.426,195.007 224.504,195.097 221.478,197.472ZM120.561,245.471C120.87,245.416 121.189,245.621 121.497,245.566C122.123,245.455 122.03,245.304 122.572,244.81C128.381,239.512 134.98,234.37 135.233,234.16C139.612,230.503 141.66,228.965 142.39,228.369C143.362,227.576 143.791,227.717 143.673,226.466C143.592,225.614 143.361,225.723 142.565,225.391C136.954,223.05 135.664,220.675 133.425,224.451C127.949,233.69 127.83,233.613 127.363,234.421C123.413,241.257 121.434,242.907 120.693,244.52C120.559,244.811 120.695,245.18 120.561,245.471ZM93.628,322.196C93.851,321.892 94.326,321.846 94.549,321.543C94.678,321.367 94.858,319.771 94.875,319.616C95.442,314.569 96.986,310.138 97.302,306.481C97.5,304.187 96.35,304.084 91.468,301.559C86.705,299.095 86.872,298.825 86.458,298.613C86.34,298.552 85.234,297.983 84.8,298.646C84.345,299.34 85.697,301.224 86.191,302.592C87.276,305.592 87.21,305.596 88.373,308.553C91.301,315.997 91.747,317.54 91.978,318.342C92.571,320.396 92.186,320.602 93.628,322.196ZM122.528,278.176C120.441,278.124 120.448,278.067 120.275,278.12C120.163,278.155 119.278,278.429 119.669,279.455C119.931,280.14 120.401,280.725 120.777,281.354C121.998,283.396 126.071,291.764 126.706,292.235C127.363,292.722 128.105,292.216 128.205,292.149C128.952,291.639 128.36,291.091 135.617,283.61C137.827,281.331 138.082,281.531 138.115,281.259C138.14,281.063 137.516,279.811 137.393,279.768C137.049,279.65 129.877,279.043 122.528,278.176ZM99.069,290.586C99.929,295.71 99.655,295.729 99.797,296.429C99.815,296.518 100.449,297.491 100.496,297.509C101.898,298.06 101.563,297.033 103.48,293.488C103.838,292.827 103.997,292.926 108.166,285.334C108.925,283.953 108.89,283.954 109.723,282.629C110.245,281.799 111.372,279.452 111.925,278.665C112.019,278.53 113.011,277.117 111.428,276.672C110.403,276.384 110.181,276.682 99.537,275.164C97.651,274.895 97.66,274.873 97.535,274.907C95.96,275.345 96.344,275.868 96.686,277.47C97.503,281.289 97.342,283.197 99.069,290.586ZM149.386,387.093C143.534,388.64 142.129,388.676 141.909,388.935C141.897,388.949 141.832,390.217 141.842,390.236C142.102,390.69 142.393,390.264 147.627,393.275C148.6,393.834 148.606,393.796 149.586,394.366C156.576,398.43 156.473,398.591 157.591,399.262C157.737,399.35 159.977,400.693 159.586,398.496C159.501,398.018 157.257,394.833 155.377,390.562C155.278,390.337 154.533,388.645 154.002,387.809C152.577,385.566 151.988,386.542 149.386,387.093ZM202.344,404.205C202.358,403.823 202.247,403.843 202.261,403.451C202.291,402.635 202.431,402.647 202.403,402.582C202.348,402.452 201.322,401.945 201.224,401.897C196.845,399.733 196.755,399.899 192.742,397.121C186.827,393.025 187.143,392.583 186.553,392.38C186.416,392.333 185.12,391.887 184.756,392.593C184.624,392.847 184.898,394.324 184.926,394.472C185.839,399.405 185.887,401.607 186.134,402.591C186.85,405.435 188.148,404.007 202.344,404.205ZM109.094,363.381C109.016,363.102 109.084,362.794 109.005,362.515C108.952,362.329 108.018,360.784 107.37,356.517C107.321,356.195 107.048,354.397 106.964,352.471C106.848,349.793 107.046,349.691 106.645,349.353C106.322,349.081 105.821,349.005 105.407,349.089C105.085,349.155 105.125,349.252 101.706,350.883C99.11,352.122 101.333,354.141 103.458,357.529C104.409,359.046 104.589,358.91 105.512,360.491C106.225,361.713 107.225,362.819 107.839,364.107L109.094,363.381ZM133.061,323.394C131.882,328.262 131.896,328.275 131.93,328.415C131.964,328.555 132.161,328.587 132.271,328.68C132.577,328.94 132.903,329.503 135.292,328.085C139.046,325.856 141.773,326.244 139.609,322.439C138.151,319.876 138.1,319.924 136.758,317.293C136.638,317.057 136.542,316.809 136.422,316.573C136.134,316.005 136.109,315.965 135.46,315.93C134.323,315.868 134.533,316.328 134.349,317.44C133.85,320.459 133.83,320.436 133.061,323.394ZM154.31,192.362C152.471,195.304 146.318,204.518 145.615,205.571C144.141,207.778 141.439,210.831 141.677,211.469C142.101,212.605 142.521,212.197 143.498,211.494C146.667,209.213 146.432,208.929 149.657,206.748C160.627,199.332 161.522,198.874 161.23,197.535C161.025,196.593 160.841,196.688 157.562,191.443C157.474,191.302 156.68,190.033 155.622,190.695C155.478,190.785 155.525,190.818 154.31,192.362ZM167.54,387.084C163.772,386.353 163.798,386.35 163.471,386.294C163.327,386.27 161.969,386.039 161.677,386.614C161.386,387.188 161.617,387.202 162.113,387.614C162.325,387.79 162.388,388.105 163.408,388.592C165.11,389.405 177.468,398.422 179.667,400.264C180.694,401.123 180.826,401.88 181.759,400.93C181.932,400.754 182.238,400.683 182.322,400.451C182.413,400.202 182.349,400.199 181.919,397.453C181.818,396.813 180.701,389.69 180.611,389.456C179.99,387.839 179.411,388.349 167.54,387.084ZM215.465,167.486C217.103,163.749 217.166,163.784 217.302,163.458C217.366,163.303 218.205,161.293 216.503,161.53C216.33,161.555 216.075,161.59 214.783,162.879C211.569,166.086 203.78,171.833 203.776,171.835C202.814,172.516 202.401,172.336 202.422,173.516C202.438,174.364 202.712,174.266 203.536,174.39C209.963,175.361 209.925,175.564 210.484,175.639C213.098,175.992 213.143,173.765 215.465,167.486ZM115.079,335.427C114.267,338.863 113.84,339.822 114.66,340.242C115.589,340.719 117.635,338.535 119.461,337.439C119.58,337.368 124.731,334.029 124.926,333.864C126.371,332.642 124.894,331.266 123.582,329.441C122.554,328.011 121.343,326.659 120.97,326.13C120.842,325.948 119.438,323.956 119.259,323.948C119.058,323.938 117.92,324.548 117.834,324.704C116.54,327.06 115.231,334.555 115.079,335.427ZM97.028,339.521C97.406,345.718 97.315,348.091 98.57,348.206C99.089,348.254 99.437,348.285 104.498,345.497C105.141,345.142 105.63,344.302 104.74,343.345C101.562,339.926 101.457,340.045 98.596,336.357C98.301,335.977 98.33,335.78 97.504,335.703C96.754,335.633 96.674,335.787 96.639,336.532C96.628,336.773 96.668,336.753 97.028,339.521ZM134.091,205.532C134.41,209 134.532,208.97 134.724,212.446C134.768,213.244 134.69,213.362 135.41,213.731C135.663,213.86 135.915,214.112 136.194,214.062C136.28,214.047 137.53,211.455 140.234,207.328C143.785,201.907 144.978,199.896 147.683,196.581C147.807,196.43 149.022,194.941 149.006,194.517C148.998,194.322 148.919,192.926 146.57,194.635C144.001,196.504 144.184,196.724 140.335,199.232C136.161,201.953 134.327,202.315 134.077,204.456C134.036,204.812 134.133,205.176 134.091,205.532ZM102.433,271.937C108.039,272.711 111.838,273.668 112.771,272.801C113.529,272.097 113.269,271.479 112.786,267.462C112.49,264.995 112.348,265.033 112.052,262.563C111.963,261.827 111.951,261.077 111.77,260.358C111.286,258.435 109.496,260.178 109.357,260.313C108.622,261.03 103.121,266.387 100.053,269.16C99.406,269.744 99.127,269.615 99.101,270.49C99.082,271.133 99.423,271.459 99.487,271.519L102.433,271.937ZM213.082,190.423C211.986,197.001 211.347,199.1 211.601,199.449C212.364,200.495 214.277,198.604 214.449,198.434C216.147,196.754 224.506,190.521 224.513,190.512C224.868,190.054 225.063,188.915 225.002,188.801C224.777,188.375 220.335,185.517 217.615,183.344C217.464,183.224 216.223,182.232 215.459,182.265C214.527,182.305 214.328,183.308 214.303,183.437C214.193,183.994 214.267,183.997 213.082,190.423ZM141.588,216.63C141.35,216.77 138.85,218.24 138.764,218.622C138.472,219.922 140.891,220.621 143.304,221.875C143.819,222.143 146.529,223.875 147.742,222.821C148.305,222.331 148.223,222.262 152.78,214.666C157.241,207.23 157.901,207.256 157.432,206.533C156.917,205.739 155.685,206.549 155.56,206.631C155.08,206.946 155.246,207.154 149.815,210.919C142.24,216.17 142.233,216.155 141.588,216.63ZM106.635,340.212C106.868,339.901 107.404,339.929 107.638,339.618C107.831,339.36 107.83,337.712 107.83,337.546C107.825,331.626 111.091,324.117 111.101,323.541C111.107,323.215 110.794,322.859 110.476,322.788C109.963,322.672 104.838,325.916 103.527,326.55C103.206,326.706 101.058,327.745 99.611,328.678C98.508,329.389 98.084,329.265 98.231,330.558C98.324,331.366 98.588,331.208 99.162,331.784C99.706,332.329 101.848,334.629 102.08,334.877C104.142,337.091 105.867,339.435 106.635,340.212ZM82.811,286.308C83.24,286.108 83.8,286.429 84.229,286.229C84.709,286.007 83.979,285.54 87.187,280.319C88.584,278.046 88.477,277.999 89.867,275.71C91.497,273.027 90.976,272.545 88.814,271.055C88.237,270.657 84.803,267.919 84.43,267.797C84.218,267.728 83.375,268.11 83.272,268.338C82.95,269.048 82.98,271.261 82.983,271.516C83.093,279.749 82.561,281.864 82.811,286.308ZM115.073,360.578C115.426,362.458 116.362,367.597 117.347,367.82C118.645,368.114 120.146,366.668 125.586,363.605C127.971,362.262 125.123,360.421 124.828,360.157C121.125,356.844 121.074,356.931 117.404,353.609C117.269,353.486 116.003,352.34 115.731,352.063C115.619,351.948 114.449,350.753 113.771,351.649C113.061,352.587 114.897,359.878 115.073,360.578ZM181.487,407.924C178.983,407.811 179.011,407.752 176.503,407.523C175.002,407.386 174.228,407.011 174.406,408.518C174.517,409.457 175.52,409.168 178.339,410.743C190.352,417.455 191.685,418.486 195.545,419.86C196.456,420.185 196.722,420.368 197.069,419.472C197.47,418.436 195.287,417.801 188.333,411.687C184.726,408.516 184.706,408.307 181.487,407.924ZM107.607,303.879L104.662,304.695C103.886,305.592 105.068,306.622 105.195,306.733C105.756,307.222 110.497,311.352 112.174,312.878C115.124,315.563 115.326,312.124 117.867,307.688C119.338,305.12 119.136,305.01 120.901,302.664C121.52,301.84 121.82,301.661 121.069,300.958C119.903,299.868 119.745,301.208 111.602,302.936C111.28,303.004 110.008,303.274 107.607,303.879ZM210.222,413.392C209.571,415.386 208.276,418.689 208.64,419.43C209.173,420.514 212.699,419.883 216.299,418.08C220.527,415.962 220.314,415.596 224.579,413.59C225.296,413.252 225.466,413.305 225.511,412.502C225.59,411.106 224.992,411.405 223.624,411.174C220.757,410.689 213.817,408.263 213.513,408.253C213.38,408.249 212.421,408.22 211.955,408.822C211.729,409.114 211.598,409.949 210.222,413.392ZM129.906,369.407C129.751,368.507 129.809,365.152 126.743,366.982C124.252,368.468 124.297,368.507 121.772,369.944C119.277,371.363 119.286,372.222 119.289,372.508C119.297,373.274 121.103,375.432 121.295,375.661C124.383,379.351 126.934,380.774 129.48,382.532C131.444,383.888 131.617,385.206 132.851,383.789C132.951,383.673 133.148,383.608 133.169,383.456C133.203,383.203 132.71,381.631 132.661,381.475C132.241,380.137 131.833,377.574 129.906,369.407ZM164.727,401.365C166.337,403.842 166.58,403.833 169.53,404.094C171.711,404.288 175.94,404.463 176.498,404.486C178.409,404.565 178.393,403.286 176.796,402.235C164.318,394.025 161.212,390.449 160.512,390.362C158.541,390.117 159.724,392.234 159.807,392.383C161.005,394.527 161.094,394.449 162.264,396.627C163.53,398.984 163.496,398.98 164.727,401.365ZM140.596,385.855C144.814,384.765 146.121,384.346 147.659,383.83C148.75,383.463 149.149,383.647 149.152,382.507C149.154,381.44 148.786,381.583 146.474,379.528C139.101,372.974 136.939,370.783 136.148,369.983C136.01,369.842 132.83,366.62 133.735,370.49C135.454,377.843 135.377,377.855 135.537,378.491C137.315,385.573 137.094,385.755 137.72,386.154C138.973,386.951 139.045,386.271 140.596,385.855ZM99.099,316.407C97.556,322.047 97.323,324.375 97.432,324.534C98.115,325.525 100.137,324.284 100.336,324.161C103.366,322.301 110.923,318.506 111.12,318.203C111.695,317.317 110.816,316.445 110.708,316.337C107.97,313.62 104.935,311.328 102.738,309.149C101.223,307.646 100.42,308.301 100.158,310.421C100.098,310.903 99.907,312.451 99.099,316.407ZM223.968,173.392C223.192,168.942 223.045,168.975 222.598,164.469C222.458,163.054 222.936,162.378 221.5,162.388C220.618,162.395 220.68,162.626 220.443,163.464C219.02,168.495 218.897,168.432 217.213,173.396C216.163,176.49 215.178,177.145 217.837,179.063C222.738,182.599 222.739,182.591 223.262,182.989C224.796,184.156 225.908,184.45 225.756,182.539C225.702,181.854 225.449,181.2 225.316,180.526C224.609,176.952 224.724,176.948 223.968,173.392ZM163.257,375.28C162.417,376.201 157.953,380.968 157.957,381.551C157.966,382.974 158.748,382.356 164.438,382.985C168.999,383.489 173.698,384.247 174.501,384.376C175.646,384.56 177.458,384.073 175.619,382.425C172.062,379.237 168.606,374.592 168.061,373.858C167.932,373.686 166.754,372.102 165.618,372.726C165.259,372.923 165.31,372.97 163.257,375.28ZM98.928,264.359C100.148,264.052 100.37,264.357 102.325,262.296C106.225,258.185 106.689,258.207 109.016,256.005C111.505,253.65 109.765,252.091 108.468,245.515C108.295,244.641 108.381,244.375 107.504,244.36C106.239,244.339 106.633,244.985 105.3,248.422C103.503,253.055 103.449,253.024 103.296,253.427C99.705,262.872 99.252,262.678 98.978,263.512C98.889,263.781 99.016,264.09 98.928,264.359ZM161.393,184.376C159.686,185.839 158.597,186.346 160.213,188.669C161.797,190.948 162.646,193.436 163.353,193.829C164.031,194.206 164.163,194.287 164.663,193.694C165.637,192.538 165.513,191.571 168.243,186.365C170.314,182.415 170.097,182.332 172.222,178.385C174.465,174.221 174.908,174.142 174.419,173.543C173.732,172.7 172.464,174.068 172.346,174.195C171.533,175.073 167.144,179.808 161.393,184.376ZM93.451,339.253C93.479,339.052 93.69,338.908 93.718,338.707C93.769,338.339 93.058,331.942 92.734,330.462C92.024,327.221 88.357,318.064 87.693,315.399C87.304,313.837 87.244,313.87 86.753,312.336C86.331,311.016 85.668,310.68 85.516,310.603C84.756,310.217 84.666,311.429 84.658,311.529C84.581,312.554 85.182,313.056 85.62,315.496C86.38,319.727 87.681,322.752 89.277,328.562C90.248,332.097 90.714,331.949 91.379,335.564C91.435,335.873 92.002,338.955 92.663,339.275C92.899,339.389 93.214,339.138 93.451,339.253ZM106.92,224.521C107.052,220.936 107.217,220.92 107.09,220.636C107.063,220.577 105.846,219.989 105.735,219.988C105.579,219.987 105.543,220.235 105.426,220.338C104.872,220.828 101.118,224.15 98.694,226.688C96.108,229.394 94.197,230.717 97.68,232.066C99.354,232.714 104.398,234.281 104.534,234.308C105.54,234.507 106.152,233.41 106.159,233.387C106.425,232.503 106.876,225.232 106.92,224.521ZM144.115,314.431C144.496,312.462 144.78,310.866 144.835,310.555C145.724,305.545 146.02,305.32 145.27,304.812C144.343,304.184 144.267,304.604 143.413,305.329C138.527,309.48 136.059,309.319 138.161,312.69C139.317,314.543 141.564,319.171 141.698,319.246C141.83,319.321 143.069,319.27 143.149,319.196C143.434,318.932 143.341,318.882 144.115,314.431ZM131.386,309.298C132.889,308.223 133.041,308.299 133.702,306.581C134.184,305.33 133.848,305.238 137.998,293.451C138.494,292.041 138.97,291.138 137.49,291.398C137.262,291.438 136.834,291.514 135.582,293.577C133.384,297.199 133.045,296.95 130.088,301.209C127.186,305.389 127.138,305.352 126.914,305.733C125.443,308.241 125.309,308.133 123.774,310.625C123.281,311.424 123.113,311.575 123.786,312.21C124.555,312.936 124.669,312.46 125.606,311.976C128.452,310.507 128.506,310.677 131.386,309.298ZM124.422,215.873C125.17,216.02 130.072,217.06 130.467,217.028C132.078,216.898 131.743,214.705 131.709,214.481C131.409,212.517 131.333,212.543 131.06,210.566C130.579,207.094 130.646,204.947 127.638,206.754C121.414,210.492 119.47,211.622 117.432,212.391C117.252,212.459 115.584,213.089 115.921,214.256C116.125,214.964 116.766,214.278 124.422,215.873ZM141.91,337.497C141.886,332.885 141.898,330.649 141.819,330.356C141.551,329.363 140.627,329.429 140.498,329.438C140.022,329.472 137.889,330.684 137.671,330.808C134.357,332.691 133.977,332.527 133.172,333.192C131.457,334.607 133.768,336.115 137.246,339.742C139.912,342.521 140.837,344.396 141.876,342.805C142.108,342.449 142.07,342.417 141.91,337.497ZM131.111,343.526C131.718,354.05 131.707,354.046 131.684,355.476C131.663,356.724 131.26,357.299 132.515,357.305C133.487,357.31 133.315,356.914 136.083,354.087C140.361,349.715 141.228,349.199 139.595,347.422C139.089,346.87 134.614,342.318 132.702,340.097C132.595,339.973 131.981,338.859 131.051,340.148C130.893,340.367 130.779,340.525 131.111,343.526Z" style="fill:url(#_Linear1);"/>
            <path d="M297.969,251.43C296.58,244.211 294.773,244.963 274.287,232.863C261.512,225.318 261.441,225.456 260.342,224.781C259.571,224.306 255.57,222.014 255.297,221.842C254.83,221.547 246.554,216.847 246.342,216.683C244.601,215.338 245.989,214.715 249.289,209.375C255.539,199.259 254.752,196.27 257.691,198.127C261.112,200.289 261.254,200.019 264.689,202.17C264.878,202.288 292.586,218.262 292.628,218.29C294.16,219.298 303.766,224.566 307.182,226.928C308.757,228.017 312.137,230.979 315.154,235.719C315.484,236.236 317.846,241.003 318.071,241.652C318.902,244.05 319.792,249.634 319.851,251.492C319.89,252.719 319.841,331.539 319.836,338.499C319.832,344.992 322.171,364.082 303.248,375.047C278.879,389.168 277.002,390.817 269.556,393.656C262.709,396.266 255.726,399.347 239.487,398.891C231.866,398.678 225.94,397.104 225.516,396.49C225.329,396.217 225.372,395.804 225.497,395.498C225.598,395.247 243.053,385.128 243.648,384.751C244.989,383.901 291.399,356.701 292.319,356.18C298.863,352.474 298.3,347.587 298.27,338.502C298.127,294.291 298.532,257.122 297.969,251.43Z" style="fill:rgb(89,89,89);"/>
            <path d="M585.572,231.91C587.664,231.623 590.539,231.139 593.507,231.308C595.458,231.419 599.528,232.144 600.523,232.412C606.067,233.903 605.942,234.22 608.533,235.435C614.836,238.391 620.477,245.077 622.734,250.403C623.58,252.398 625.495,256.375 625.865,262.465C626.084,266.079 627.157,281.303 615.614,291.627C613.689,293.348 613.712,293.944 615.708,296.328C616.471,297.238 616.454,297.243 625.083,307.84C627.198,310.437 627.515,310.543 627.091,311.238C626.618,312.013 624.973,311.72 623.501,311.706C609.56,311.575 608.334,312.286 606.616,310.396C606.325,310.076 601.919,304.341 601.429,303.547C598.987,299.595 598.077,300.248 595.512,300.598C590.421,301.292 583.2,300.034 581.517,299.445C575.35,297.287 570.308,294.149 566.412,289.573C564.411,287.222 562.347,284.176 561.23,281.622C558.971,276.458 558.572,274.196 558.119,269.534C556.467,252.496 566.053,242.545 567.844,240.878C569,239.803 572.382,237.118 573.49,236.485C578.36,233.707 579.288,233.283 585.572,231.91ZM595.59,284.975C595.924,284.902 609.457,283.155 608.914,264.483C608.711,257.515 604.834,251.358 601.556,249.415C599.478,248.184 596.893,246.063 589.525,246.755C583.705,247.301 573.722,252.16 574.909,268.461C575.352,274.547 578.293,279.222 580.689,281.267C587.614,287.178 595.211,285.04 595.59,284.975Z" style="fill:rgb(7,66,124);"/>
            <path d="M482.091,281.506C482.077,282.647 483.299,294.274 469.637,298.87C464.708,300.528 462.832,300.071 438.498,300.172C428.9,300.212 428.832,300.099 428.365,299.647C427.305,298.619 427.867,298.319 427.804,240.501C427.802,238.877 427.772,233.843 427.869,233.585C428.472,231.976 430.247,232.195 431.497,232.191C459.126,232.102 459.129,232.09 461.509,232.406C462.43,232.529 479.694,232.954 480.426,249.503C480.506,251.306 480.212,256.716 477.196,260.234C475.184,262.581 473.836,263.298 473.488,263.483C472.817,263.841 472.823,263.824 472.284,264.376C471.783,264.888 471.977,264.987 472.339,265.602C472.735,266.276 476.678,267.893 478.483,270.513C481.082,274.286 481.653,275.426 482.091,281.506ZM457.552,246.049C456.672,245.977 452.83,245.664 446.52,245.847C446.364,245.851 445.211,245.885 444.748,246.642C444.64,246.818 444.403,246.817 444.447,256.5C444.449,256.891 444.122,259.307 446.505,259.443C446.827,259.462 454.76,259.454 456.496,259.376C465.512,258.971 463.824,250.542 462.398,248.566C460.644,246.137 458.008,246.136 457.552,246.049ZM457.473,271.946C456.597,271.935 447.397,271.813 446.518,271.888C446.307,271.906 444.655,272.047 444.404,273.485C444.386,273.591 444.418,284.358 444.435,284.508C444.454,284.677 444.595,285.952 445.567,286.311C446.004,286.472 448.265,286.479 448.5,286.479C457.703,286.504 457.699,286.511 458.495,286.439C462.875,286.046 464.952,283.359 465.189,280.466C465.823,272.767 459.602,272.261 457.473,271.946Z" style="fill:rgb(7,66,124);"/>
            <path d="M386.501,287.941C375.256,288.202 374.874,287.586 373.984,288.848C372.952,290.309 371.156,298.865 369.62,299.67C368.307,300.358 366.943,300.111 355.506,300.177C354.267,300.185 352.428,300.389 353.315,297.446C354.233,294.397 354.604,294.542 355.82,290.592C356.171,289.453 373.186,242.607 373.27,242.402C375.45,237.062 376.065,232.729 378.459,232.262C378.534,232.247 394.47,232.055 395.535,232.39C396.912,232.821 396.769,233.17 400.711,243.421C401.678,245.934 401.479,245.987 402.52,248.491C404.342,252.875 404.093,252.944 405.826,257.374C406.591,259.33 408.622,265.457 411.44,272.522C412.089,274.148 414.706,281.536 414.984,282.322C414.996,282.357 416.733,286.571 417.645,289.453C418.283,291.472 420.913,297.887 420.931,298.463C420.935,298.601 420.972,299.789 420.33,300.071C420.322,300.074 420.323,300.178 409.5,300.159C406.265,300.153 404.181,300.464 403.241,298.642C401.34,294.957 400.455,288.891 398.633,288.213C397.651,287.848 394.712,287.92 386.501,287.941ZM381.109,267.359C379.416,272.214 379.015,273.636 379.709,274.26C380.326,274.815 380.457,274.538 391.503,274.622C391.599,274.623 393.682,274.827 394.196,274.221C394.911,273.381 394.365,273.23 391.308,264.575C390.253,261.589 390.4,261.556 389.274,258.586C387.951,255.095 387.724,251.981 387.254,251.812C386.232,251.443 385.974,251.548 385.733,252.617C385.249,254.759 385.524,254.834 383.718,259.583C382.813,261.966 383.063,262.033 381.109,267.359Z" style="fill:rgb(7,66,123);"/>
            <path d="M513.503,287.94C511.374,287.944 508.26,287.778 507.464,288.455C505.802,289.868 504.515,298.877 502.66,299.76C501.099,300.503 501.006,300.112 488.508,300.159C487.064,300.165 485.598,300.21 486.393,297.472C486.478,297.177 503.419,250.537 503.443,250.478C506.667,242.441 508.732,234.586 510.053,233.08C511.072,231.919 511.34,232.235 521.498,232.21C527.62,232.195 528.738,231.962 529.783,233.296C530.772,234.561 532.083,239.466 533.399,242.545C533.697,243.242 533.648,243.254 536.729,251.415C537.682,253.94 537.476,253.992 538.509,256.496C540.267,260.757 540.502,262.618 541.805,265.363C542.7,267.248 543.118,269.566 547.412,280.533C547.493,280.74 550.117,287.905 550.352,288.547C550.465,288.854 550.42,288.858 551.707,292.412C553.682,297.867 554.383,297.88 553.703,299.669C553.467,300.29 553.21,300.192 541.502,300.191C537.787,300.191 536.834,300.623 535.68,297.431C532.941,289.86 533.448,288.357 530.553,288.011C530.149,287.962 530.149,287.899 513.503,287.94ZM525.185,266.632C523.697,262.602 523.978,262.526 522.397,258.542C521.144,255.383 521.329,253.987 520.616,252.382C520.277,251.618 520.046,251.774 519.32,252.182C518.37,252.716 518.802,252.996 518.506,254.502C518.073,256.709 515.508,263.012 513.219,270.418C512.497,272.756 511.118,274.72 514.488,274.721C525.63,274.725 525.645,274.975 526.582,274.736C527.547,274.489 527.532,273.625 527.529,273.5C527.514,272.685 525.393,267.174 525.185,266.632Z" style="fill:rgb(7,66,124);"/>
            <path d="M633.948,275.461C633.885,272.037 633.911,272.04 633.877,244.499C633.863,233.404 633.636,232.587 635.455,232.251C635.748,232.197 649.054,232.145 649.565,232.279C651.179,232.703 650.792,233.623 650.832,244.497C650.948,275.737 650.252,276.131 652.596,280.443C656.087,286.862 671.209,287.706 673.356,276.473C673.957,273.332 673.773,273.305 673.717,236.501C673.712,233.363 673.349,232.204 676.498,232.195C688.499,232.158 688.596,231.991 689.461,232.564C690.439,233.212 690.259,235.123 690.264,241.499C690.291,273.944 690.417,273.952 689.866,278.557C688.297,291.666 675.679,303.586 655.544,300.23C654.534,300.062 648.995,299.139 643.813,295.09C635.266,288.413 634.391,278.043 633.948,275.461Z" style="fill:rgb(6,66,123);"/>
            <path d="M840.427,284.891C845.069,285.539 851.707,286.072 856.604,278.562C858.309,275.948 858.839,276.363 864.501,276.427C873.319,276.526 875.249,276.072 875.48,277.505C875.568,278.054 872.871,290.138 860.644,296.81C860.406,296.94 855.663,299.094 853.537,299.64C853.002,299.778 841.663,302.471 832.387,298.772C829.184,297.495 823.991,295.793 818.173,288.773C815.029,284.98 812.517,279.018 811.831,275.437C808.195,256.446 816.37,246.128 816.709,245.632C817.337,244.711 821.23,239.001 826.769,235.985C827.643,235.509 832.958,232.156 842.49,231.368C848.198,230.896 856.324,232.961 859.374,234.736C861.712,236.097 870.002,239.412 874.853,252.364C876.395,256.481 873.729,255.799 871.502,255.795C858.985,255.776 858.522,256.259 857.385,254.584C855.086,251.198 852.042,246.066 841.536,246.896C836.644,247.283 829.048,252.045 827.916,262.542C826.976,271.257 829.239,275.377 829.776,276.354C831.507,279.506 831.812,280.456 835.253,282.868C837.508,284.449 840.227,284.844 840.427,284.891Z" style="fill:rgb(89,89,89);"/>
            <path d="M717.559,231.865C720.273,231.45 720.256,231.452 720.49,231.417C725.996,230.581 736.217,232.05 741.676,236.265C747.912,241.08 748.745,246.771 749.173,248.574C749.454,249.757 750.056,251.736 747.555,251.91C747.036,251.946 734.687,251.932 734.48,251.927C730.77,251.828 731.913,249.858 730.204,247.722C725.82,242.241 717.738,244.308 716.928,249.557C715.805,256.842 727.289,258.598 734.521,261.453C739.052,263.242 750.682,267.059 750.347,280.495C749.985,295.008 736.196,303.919 716.437,299.777C714.017,299.27 709.116,297.044 707.795,296.096C700.38,290.775 699.679,284.578 699.266,282.543C698.677,279.643 699.86,279.38 701.497,279.366C714.406,279.253 714.435,279.151 715.503,279.492C717.876,280.252 716.464,286.2 723.553,287.187C733.401,288.559 734.374,279.268 730.492,276.51C722.743,271.004 708.173,271.197 701.879,261.267C698.219,255.493 697.868,243.664 705.841,236.882C709.935,233.399 716.559,232.066 717.559,231.865Z" style="fill:rgb(7,65,123);"/>
            <path d="M884.875,277.494C884.876,269.83 884.876,262.166 884.877,254.502C884.89,233.46 884.721,233.211 885.557,232.579C885.969,232.268 888.262,232.264 888.499,232.263C899.296,232.243 899.294,232.234 899.527,232.254C901.958,232.453 901.331,234.455 901.346,242.5C901.419,282.47 901.368,282.469 901.475,284.502C901.527,285.497 901.758,286.471 903.477,286.687C904.266,286.786 918.219,286.713 919.501,286.706C922.809,286.689 924.091,286.195 924.101,289.497C924.103,290.137 924.126,297.356 924.121,297.504C924.056,299.289 924.164,299.666 922.449,300.122C922.236,300.179 901.336,300.154 899.5,300.152C886.158,300.137 886.019,300.177 885.427,299.566C884.872,298.994 884.914,298.259 884.878,288.501C884.877,284.832 884.876,281.163 884.875,277.494Z" style="fill:rgb(89,89,88);"/>
            <path d="M197.354,338.354C192.257,343.625 192.235,343.661 191.621,343.818C189.626,344.331 187.832,341.658 186.065,339.981C181.886,336.015 180.967,335.133 183.481,332.483C185.747,330.094 189.499,326.535 190.033,326.028C190.812,325.289 190.648,325.132 199.48,316.479C200.008,315.961 203.135,312.898 205.928,309.844C207.876,307.714 205.803,306.548 203.653,304.351C182.397,282.621 181.693,282.809 181.89,281.504C182.181,279.58 185.221,277.47 188.272,274.287C190.389,272.079 191.063,271.625 193.206,273.791C222.479,303.376 222.602,303.231 225,305.938C227.553,308.82 225.057,310.424 223.759,311.752C223.617,311.898 202.032,333.581 198.836,336.828C198.578,337.089 198.621,337.103 198.362,337.361C198.281,337.44 198.287,337.434 197.354,338.354Z" style="fill:rgb(90,89,89);"/>
            <path d="M938.499,232.256C944.247,232.255 946.213,232.203 946.552,232.278C946.705,232.311 947.615,232.513 948.002,233.597C948.241,234.268 948.038,234.293 948.05,242.502C948.06,249.005 947.973,248.98 947.981,255.5C948.003,267.5 948.026,279.501 948.049,291.501C948.048,295.49 948.213,298.889 947.547,299.544C946.828,300.25 945.889,300.156 935.5,300.123C932.592,300.113 931.57,300.402 931.522,297.499C931.5,296.198 931.51,252.42 931.51,248.5C931.514,234.715 931.333,234.697 931.621,233.534C932.02,231.925 934.25,232.283 938.499,232.256Z" style="fill:rgb(89,90,90);"/>
            <path d="M595.514,364.952C595.433,364.947 588.018,365.982 583.962,358.256C582.969,356.365 579.235,345.478 587.72,338.786C588.172,338.43 590.43,336.649 594.491,336.369C596.595,336.224 600.217,337.163 602.248,338.966C602.824,339.476 602.723,339.696 603.497,339.752C605.076,339.865 604.647,339.083 604.526,337.501C604.379,335.584 604.366,328.813 604.433,328.486C604.852,326.449 608.001,326.886 608.567,327.424C609.289,328.112 609.166,328.285 609.184,343.498C609.191,349.346 609.136,353.888 609.176,359.507C609.185,360.864 609.33,363.128 608.864,363.736C607.703,365.251 604.946,364.767 604.665,363.416C604.39,362.096 604.851,361.365 603.504,361.519C602.526,361.631 602.325,363.468 598.509,364.535C596.987,364.96 595.684,364.937 595.514,364.952ZM597.6,341.053L595.505,340.843C586.783,340.964 585.146,353.398 589.864,358.141C595.593,363.902 603.437,359.727 604.218,352.463C605.253,342.834 598.318,341.31 597.6,341.053Z" style="fill:rgb(90,90,90);"/>
            <path d="M540.554,360.994C539.936,361.009 539.121,363.175 535.476,364.419C530.767,366.028 524.11,364.24 521.437,359.538C520.267,357.478 517.468,352.733 519.696,345.567C521.111,341.016 523.74,339.26 525.317,338.199C527.592,336.668 534.945,334.863 539.409,339.653C539.607,339.866 539.638,340.234 540.498,340.253C541.975,340.285 540.63,337.676 542.356,337.143C542.642,337.055 545.351,336.218 545.872,338.4C545.915,338.578 546.121,362.623 545.752,363.618C545.355,364.688 543.695,364.637 543.497,364.631C540.954,364.553 541.463,361.866 541.317,361.581C541.012,360.983 540.631,360.992 540.554,360.994ZM540.952,352.571C540.987,352.204 541.613,349.954 540.405,346.533C539.706,344.557 538.787,343.622 538.585,343.416C533.313,338.054 525.617,341.825 524.264,347.444C522.063,356.58 529.452,362.942 535.403,360.267C540.286,358.071 540.632,353.991 540.952,352.571Z" style="fill:rgb(91,90,90);"/>
            <path d="M880.608,361.666C880.37,361.931 879.638,363.457 876.48,364.435C870.814,366.19 864.938,363.843 862.488,359.507C861.293,357.391 860.119,355.845 859.974,350.505C859.811,344.482 864.164,338.336 868.411,337.225C878.023,334.708 880.47,340.126 880.724,340.137C880.853,340.142 882.287,338.969 882.54,338.295C883.091,336.829 882.623,337.061 884.518,337.028C887.51,336.977 886.84,338.674 886.877,344.487C886.996,363.21 886.809,363.219 886.669,363.582C886.12,365.005 882.732,364.803 882.301,363.622C882.185,363.303 882.266,362.937 882.17,362.61C881.888,361.65 881.545,362.017 880.608,361.666ZM881.933,350.507C881.87,349.293 882.095,346.815 879.97,344.154C879.705,343.822 878.11,341.824 875.605,341.128C871.526,339.994 868.896,342.226 868.495,342.493C864.492,345.164 863.907,352.125 866.428,356.549C868.305,359.842 872.7,361.937 876.402,360.264C882.347,357.577 881.894,351.42 881.933,350.507Z" style="fill:rgb(91,90,90);"/>
            <path d="M227.106,335.508C227.329,332.673 226.968,332.454 227.792,331.908C228.275,331.588 228.331,331.502 261.5,331.56C275.276,331.584 276.609,331.229 277.059,332.66C277.271,333.334 277.295,333.407 277.184,341.493C277.174,342.201 277.408,343.976 275.463,344.199C275.039,344.248 260.471,344.288 243.503,344.231C228.694,344.182 228.252,344.421 227.469,343.521C227.053,343.041 227.13,340.355 227.106,335.508Z" style="fill:rgb(90,89,89);"/>
            <path d="M402.488,364.94C401.89,364.894 397.673,364.571 395.313,362.759C394.132,361.851 388.089,357.778 390.266,346.453C391.66,339.199 398.536,336.293 403.499,336.515C414.843,337.023 419.246,348.651 415.245,357.38C411.347,365.885 403.336,364.906 402.488,364.94ZM395.287,346.415C395.122,347.061 393.441,350.566 395.411,355.537C399.1,364.844 412.87,361.238 411.783,349.477C411.244,343.651 405.667,338.667 399.532,341.559C396.33,343.069 395.299,346.391 395.287,346.415Z" style="fill:rgb(90,90,90);"/>
            <path d="M758.118,270.506C758.165,261.404 758.04,260.451 758.793,259.85C759.347,259.407 762.201,259.403 762.5,259.403C774.511,259.386 774.487,259.436 786.5,259.418C799.769,259.398 800.17,259.337 800.596,260.457C800.883,261.208 800.876,261.231 800.794,270.508C800.775,272.707 800.684,273.229 798.492,273.33C798.378,273.335 762.015,273.364 760.506,273.328C757.612,273.258 758.273,271.513 758.118,270.506Z" style="fill:rgb(89,89,89);"/>
            <path d="M426.947,339.135C428.194,339.174 428.191,339.212 428.293,339.177C428.469,339.118 428.562,338.87 428.698,338.743C429.174,338.3 431.557,336.008 436.483,336.634C441.842,337.315 443.604,340.829 443.871,341.016C444.032,341.131 444.352,341.152 444.55,341.151C445.05,341.149 445.039,341.136 445.572,340.597C446.081,340.083 446.048,340.071 446.549,339.548C451.137,334.757 457.753,336.626 459.767,338.118C463.674,341.014 464.589,344.802 464.623,349.499C464.639,351.706 464.6,362.416 464.595,362.508C464.447,365.017 461.234,365.107 460.141,363.748C459.46,362.901 459.928,354.131 459.764,348.492C459.505,339.594 449.93,338.5 446.738,344.611C445.251,347.457 446.112,358.314 445.905,362.532C445.741,365.884 441.671,364.623 441.281,363.609C440.802,362.364 441.365,351.734 440.912,347.441C440.387,342.477 435.424,338.248 429.508,342.51C425.522,345.382 427.479,357.733 427.058,362.473C426.885,364.41 425.681,364.6 424.498,364.559C422.044,364.474 422.175,362.99 422.171,361.507C422.166,359.745 422.12,342.01 422.176,339.485C422.196,338.562 422.2,337.075 424.502,337.08C426.709,337.085 426.639,338.323 426.947,339.135Z" style="fill:rgb(91,90,90);"/>
            <path d="M508.871,349.5C508.836,348.711 509.013,346.951 507.848,344.339C505.931,340.044 499.003,339.216 495.89,344.701C493.971,348.082 495.74,361.328 494.789,363.665C494.339,364.773 491.608,364.797 490.826,364.132C489.433,362.947 490.9,351.567 489.886,346.417C488.382,338.775 479.371,339.137 476.773,345.602C475.592,348.541 476.508,361.69 476.069,363.373C475.722,364.703 471.563,365.656 471.359,362.513C471.316,361.847 471.323,338.86 471.402,338.48C471.826,336.424 474.324,337.033 474.594,337.099C476.099,337.465 476.277,338.63 476.351,338.673C477.367,339.272 477.455,339.031 478.427,338.386C484.149,334.593 489.762,337.424 491.664,339.327C492.791,340.454 492.428,341.029 493.596,341.077C494.963,341.133 494.56,340.32 497.295,338.217C500.166,336.009 504.994,336.38 507.56,337.356C509.909,338.25 512.314,341.191 513.069,343.627C513.99,346.597 513.774,362.705 513.485,363.494C513.004,364.807 509.702,365.074 508.965,363.378C508.836,363.08 508.924,360.664 508.871,349.5Z" style="fill:rgb(92,91,90);"/>
            <path d="M935.506,364.957C934.667,364.902 934.659,365.099 932.456,364.759C921.527,363.07 918.857,348.554 925.007,341.079C925.09,340.978 928.832,335.102 938.424,336.888C941.519,337.465 943.632,339.447 944.568,340.436C948.127,344.198 948.695,351.188 947.211,352.065C945.73,352.941 928.692,352.207 927.643,352.781C926.003,353.678 927.901,356.51 928.08,356.777C931.893,362.469 937.921,361.985 941.648,357.617C942.163,357.014 942.927,355.814 945.468,355.891C945.645,355.896 947.455,355.951 947.077,357.416C946.81,358.45 944.094,362.465 941.589,363.671C938.568,365.127 935.603,364.953 935.506,364.957ZM937.639,341.095C937.398,341.049 934.624,339.977 931.488,341.478C931.139,341.644 929.353,342.499 927.951,344.771C926.437,347.224 926.604,348.505 929.5,348.471C940.479,348.341 940.761,348.577 941.491,348.454C943.528,348.112 943.003,345.069 940.35,342.667C939.171,341.598 939.08,341.761 937.639,341.095Z" style="fill:rgb(90,90,89);"/>
            <path d="M809.503,364.961C808.615,364.901 808.61,365.093 806.455,364.755C793.841,362.777 793.304,344.864 800.479,339.475C801.531,338.686 804.437,335.818 811.451,336.8C821.697,338.234 823.272,350.994 821.279,352.156C820.514,352.602 816.959,352.515 806.5,352.567C804.151,352.579 801.636,352.271 801.206,353.335C800.046,356.204 806.281,363.991 813.558,359.588C815.88,358.182 815.741,355.775 819.478,355.851C823.73,355.938 818.234,362.499 815.606,363.715C812.54,365.133 809.548,364.959 809.503,364.961ZM806.376,341.105C804.288,342.041 804.167,341.914 802.699,343.669C800.809,345.928 800.722,348.328 802.503,348.483C802.853,348.513 812.619,348.439 813.499,348.433C813.719,348.431 815.774,348.416 816.238,348.103C817.826,347.032 815.231,340.956 809.489,340.732C808.028,340.675 808.049,340.818 806.376,341.105Z" style="fill:rgb(90,89,89);"/>
            <path d="M705.501,365.033C703.605,364.913 703.616,364.917 703.453,364.904C696.78,364.35 692.983,358.936 692.14,354.566C690.135,344.177 696.511,339.43 697.592,338.625C700.078,336.773 704.175,336.499 705.498,336.559C710.125,336.767 712.57,338.741 714.074,339.974C717.371,342.675 719.169,351.001 717.256,352.141C716.784,352.422 713.802,352.483 713.5,352.489C707.658,352.609 698.659,352.579 698.513,352.591C696.429,352.757 697.299,355.301 697.381,355.54C699.041,360.399 704.977,361.934 708.382,360.251C712.266,358.332 711.148,356.301 714.514,355.926C717.51,355.592 717.558,357.215 715.836,359.703C712.171,364.998 707.682,364.846 705.501,365.033ZM708.529,341.444C708.126,341.323 707.763,341.091 707.36,340.971C704.28,340.046 699.172,341.513 697.582,345.534C696.442,348.414 698.201,348.485 699.5,348.48C710.526,348.438 710.533,348.556 711.475,348.383C711.763,348.33 713.828,347.95 712.043,344.766C710.837,342.614 710.581,342.828 708.529,341.444Z" style="fill:rgb(90,89,89);"/>
            <path d="M369.501,364.886C367.198,364.795 362.125,364.955 357.234,359.744C348.316,350.242 352.113,329.596 368.48,329.033C369.298,329.005 377.21,327.817 382.799,335.286C384.844,338.018 385.936,339.899 382.528,339.929C377.908,339.968 378.921,336.081 374.562,334.362C374.188,334.215 369.536,331.581 363.645,334.764C356.061,338.86 354.651,352.984 363.291,358.837C368.082,362.084 374.547,361.226 378.306,356.354C379.382,354.96 379.342,353.915 382.491,353.851C383.648,353.828 383.85,353.538 384.509,354.495C384.911,355.079 384.265,356.214 384.191,356.344C379.418,364.724 373.722,364.768 369.501,364.886Z" style="fill:rgb(89,89,89);"/>
            <path d="M558.045,349.488C558.04,353.492 558.035,357.496 558.03,361.5C558.029,361.725 558.025,363.7 557.293,364.22C557.014,364.417 553.372,365.604 553.169,362.53C553.164,362.451 553.129,342.827 553.116,340.51C553.101,337.92 552.892,337.02 555.494,337.022C557.64,337.023 559.161,339.173 559.317,339.179C559.469,339.186 559.183,338.831 560.717,337.896C563.673,336.095 573.194,334.706 576.394,343.54C576.955,345.09 577.195,345.105 577.133,361.496C577.128,362.761 577.386,364.677 574.498,364.532C573.788,364.496 572.373,364.435 572.242,362.53C571.972,358.577 573.061,346.822 571.057,343.777C568.599,340.041 563.886,340.227 561.622,341.694C557.816,344.16 558.119,347.883 558.045,349.488Z" style="fill:rgb(92,92,92);"/>
            <path d="M677.603,341.259C674.971,340.653 674.925,340.302 672.365,341.12C670.777,341.628 669.348,343.083 668.863,343.746C666.517,346.95 667.963,361.48 667.36,363.45C666.943,364.81 662.875,365.695 662.67,362.49C662.657,362.294 662.65,338.942 662.713,338.536C663.05,336.346 666.436,336.809 667.19,337.807C667.744,338.54 667.585,338.858 668.503,338.852C668.793,338.85 668.776,338.784 670.598,337.69C671.513,337.14 674.072,336.498 675.498,336.437C681.013,336.2 684.805,340.053 686.001,343.651C686.859,346.233 686.624,362.868 686.385,363.455C685.908,364.626 683.498,364.758 682.603,364.293C681.397,363.665 681.706,360.775 681.716,358.501C681.777,344.713 681.841,343.93 677.603,341.259Z" style="fill:rgb(90,90,89);"/>
            <path d="M748.943,343.502C749.11,338.785 748.981,338.779 749.072,338.379C749.58,336.147 752.977,337.095 753.329,337.659C753.609,338.107 753.583,338.708 753.879,339.145C754.004,339.329 754.28,339.382 754.503,339.387C755.193,339.4 755.138,339.231 755.645,338.761C759.38,335.294 766.39,336.575 768.608,338.358C771.895,341.001 772.801,343.844 772.875,348.492C772.893,349.616 773.048,359.454 772.876,362.534C772.7,365.661 768.812,364.712 768.379,363.553C768.008,362.559 768.318,351.836 768.178,348.519C767.76,338.637 757.169,338.738 754.441,345.473C753.236,348.449 753.995,358.817 753.769,362.525C753.751,362.832 753.611,365.128 750.495,364.531C748.369,364.124 748.943,360.615 749.019,358.499C749.04,357.904 748.989,344.754 748.943,343.502Z" style="fill:rgb(90,90,90);"/>
            <path d="M905.503,365.032C904.819,364.962 904.13,364.943 903.446,364.873C899.877,364.505 896.765,362.332 895.501,360.499C887.696,349.18 894.79,332.77 910.584,337.261C914.085,338.256 918.189,343.435 917.032,345.17C916.452,346.04 914.048,345.75 913.478,345.568C911.759,345.019 910.674,341.16 906.47,340.775C894.576,339.685 894.506,359.853 904.466,360.846C910.208,361.418 912.125,357.077 912.569,356.555C914.053,354.807 917.316,355.188 917.435,356.508C917.483,357.034 916.809,358.445 916.732,358.605C913.509,365.348 906.636,364.956 905.503,365.032Z" style="fill:rgb(87,87,87);"/>
            <path d="M854.517,340.935C853.173,341.085 851.377,340.434 851.336,343.492C851.319,344.853 851.443,344.838 851.323,360.499C851.321,360.732 851.304,363.014 851.19,363.4C850.779,364.8 846.747,365.508 846.599,362.492C846.58,362.107 846.613,342.882 846.547,342.492C846.17,340.259 843.719,341.415 843.382,339.539C843.049,337.692 844.119,337.191 844.308,337.103C844.722,336.909 845.193,336.857 845.604,336.658C847.579,335.702 844.748,328.225 852.478,326.399C855.507,325.684 856.163,326.385 856.376,326.613C856.946,327.223 857.105,329.214 855.673,329.829C854.922,330.151 852.437,330.136 851.609,333.525C850.505,338.044 854.507,336.812 855.44,336.969C855.604,336.997 856.651,337.173 856.976,338.372C857.036,338.594 857.542,340.461 855.594,340.881C855.243,340.957 854.869,340.859 854.517,340.935Z" style="fill:rgb(89,89,88);"/>
            <path d="M780.874,358.464C780.442,343.359 781.685,341.827 779.373,340.937C779.06,340.816 778.697,340.884 778.382,340.769C777.009,340.268 777.118,338.158 777.636,337.599C778.698,336.455 780.712,337.604 780.776,334.512C780.846,331.151 780.126,329.651 783.486,329.798C786.671,329.936 785.36,333.85 785.669,335.466C786.111,337.78 789.967,336.525 791.657,337.238C792.843,337.739 792.524,339.308 792.486,339.497C792.034,341.724 787.975,340.431 786.334,341.264C785.451,341.712 785.734,342.502 785.686,353.498C785.664,358.658 785.334,360.183 790.483,360.68C793.689,360.989 792.52,363.761 792.135,364.121C791.563,364.656 789.715,364.649 789.5,364.648C786.403,364.638 782.955,364.483 781.379,360.551C780.844,359.214 780.932,358.706 780.874,358.464Z" style="fill:rgb(89,88,88);"/>
            <path d="M634.027,344.509C633.882,351.509 634.054,351.486 633.95,358.495C633.915,360.86 635.673,360.787 636.494,360.799C644.945,360.916 645.062,360.649 645.723,361.23C646.921,362.284 646.506,364.324 644.508,364.571C644.426,364.581 631.171,364.634 630.506,364.475C628.821,364.075 629.139,361.597 629.139,361.5C629.133,359.098 629.068,333.417 629.136,331.478C629.263,327.843 633.27,329.545 633.38,329.639C634.581,330.674 633.731,336.473 634.027,344.509Z" style="fill:rgb(92,91,91);"/>
            <path d="M832.277,349.496C832.259,363.321 832.585,363.725 831.416,364.329C830.869,364.612 829.102,364.612 828.562,364.362C827.689,363.956 827.578,362.664 827.563,362.495C827.544,362.271 827.485,340.373 827.495,339.5C827.517,337.777 827.81,337.244 829.451,337.029C832.855,336.584 831.733,339.845 833.484,339.462C833.958,339.358 834.649,337.411 838.541,336.78C839.547,336.616 841.13,336.473 840.83,339.554C840.579,342.132 838.641,340.983 835.523,342.542C832.434,344.088 832.323,349.082 832.277,349.496Z" style="fill:rgb(90,89,89);"/>
            <path d="M741.855,353.5C741.827,362.934 742.141,364.073 740.495,364.483C737.186,365.308 736.955,362.802 736.925,362.476C736.924,362.463 736.913,330.83 736.993,330.623C737.749,328.689 741.179,328.933 741.675,330.432C741.83,330.903 741.792,330.919 741.855,353.5Z" style="fill:rgb(94,94,93);"/>
            <path d="M650.799,356.498C650.789,350.991 650.795,351.006 650.805,345.501C650.814,340.629 650.661,338.102 651.403,337.395C652.058,336.77 654.587,336.786 655.137,337.722C655.444,338.244 655.431,341.195 655.429,341.498C655.344,360.837 655.494,360.817 655.423,362.496C655.396,363.128 655.233,364.441 653.508,364.597C651.903,364.742 651.252,363.906 651.128,363.747C650.731,363.236 650.809,362.416 650.799,356.498Z" style="fill:rgb(87,87,87);"/>
            <path d="M649.958,329.5C650.15,328.942 650.005,328.926 650.192,328.38C650.215,328.312 650.336,327.962 650.615,327.589C652.53,325.024 656.307,326.967 656.165,329.51C655.945,333.434 651.156,333.265 650.205,330.618C650.076,330.259 650.087,329.859 649.958,329.5Z" style="fill:rgb(85,86,86);"/>
        </g>
    </g>
    <defs>
        <linearGradient id="_Linear1" x1="0" y1="0" x2="1" y2="0" gradientUnits="userSpaceOnUse" gradientTransform="matrix(178.146398,9.663944,-9.663944,178.146398,59.157561,255.970766)"><stop offset="0" style="stop-color:rgb(42,140,255);stop-opacity:1"/><stop offset="0.27" style="stop-color:rgb(87,114,192);stop-opacity:1"/><stop offset="0.5" style="stop-color:rgb(104,104,168);stop-opacity:1"/><stop offset="1" style="stop-color:rgb(206,139,110);stop-opacity:1"/></linearGradient>
    </defs>
</svg>
