<?xml version="1.0" encoding="UTF-8" standalone="no"?><!DOCTYPE svg PUBLIC "-//W3C//DTD SVG 1.1//EN" "http://www.w3.org/Graphics/SVG/1.1/DTD/svg11.dtd"><svg width="100%" height="100%" viewBox="0 0 328 122" version="1.1" xmlns="http://www.w3.org/2000/svg" xmlns:xlink="http://www.w3.org/1999/xlink" xml:space="preserve" xmlns:serif="http://www.serif.com/" style="fill-rule:evenodd;clip-rule:evenodd;stroke-linejoin:round;stroke-miterlimit:2;"><g id="Gemini_Generated_Image_4nayil4nayil4nay.png"><path d="M46.724,9.247c1.128,-1.274 1.301,-1.072 7.654,-5.51c0.006,-0.004 1.618,-1.029 2.933,-1.988c2.385,-1.74 2.401,-1.76 2.655,-1.748c0.07,0.003 0.076,0.12 0.124,0.171c0.052,0.055 0.153,0.072 0.174,0.144c0.053,0.186 -0.705,2.459 -1.158,4.843c-0.075,0.394 -0.159,0.372 -1.167,4.877c-0.068,0.305 -0.092,0.298 -0.924,3.802c-0.73,3.077 -1.214,3.503 -0.465,3.547c0.278,0.016 0.27,-0.054 2.982,-1.793c1.984,-1.273 2.47,-1.672 4.987,-3.22c0.128,-0.079 0.117,-0.094 1.569,-1.025c0.556,-0.357 1.373,-1.115 1.551,0.582c0.002,0.016 0.922,5.934 0.059,12.023c-0.139,0.984 -0.632,3.457 -0.692,3.757c-0.128,0.643 -1.123,3.936 -1.184,4.095c-1.364,3.562 -2.607,5.592 -2.887,6.05c-3.216,5.255 -6.128,7.935 -10.062,10.976c-3.938,3.044 -12.616,7.662 -13.493,8.323c-2.146,1.618 -6.198,4.833 -8.46,11.131c-0.667,1.856 -0.723,1.838 -1.126,3.771c-0.207,0.992 -0.896,3.154 -0.652,8.299c0.026,0.548 0.144,3.046 1.161,6.76c0.116,0.424 1.008,3.111 1.251,3.704c0.861,2.106 3.651,9.089 10.811,15.027c3.889,3.226 7.375,5.13 11.564,6.564c0.353,0.121 1.271,0.435 4.537,1.076c0.079,0.015 3.275,0.466 5.66,0.19c0.482,-0.056 0.668,-0.311 0.942,0.214c0.048,0.091 0.166,0.17 0.149,0.271c-0.013,0.075 -0.148,0.047 -0.211,0.09c-0.158,0.107 -0.119,0.164 -0.496,0.328c-2.727,1.186 -9.113,5.436 -11.348,6.224c-1.196,0.421 -5.073,1.802 -10.066,0.046c-2.012,-0.708 -3.45,-1.913 -13.068,-7.236c-0.676,-0.374 -0.641,-0.423 -1.32,-0.796c-2.944,-1.62 -2.892,-1.694 -5.843,-3.311c-7.418,-4.063 -11.07,-8.236 -11.858,-9.137c-1.468,-1.677 -2.314,-2.476 -4.88,-6.803c-2.422,-4.085 -3.481,-8.166 -3.553,-8.364c-0.491,-1.361 -1.485,-5.214 -1.823,-8.629c-0.059,-0.599 -1.048,-4.688 -0.656,-14.643c0.122,-3.113 0.972,-7.21 1.42,-8.584c0.116,-0.357 1.583,-5.209 5.02,-8.774c2.209,-2.291 2.18,-2.342 5.61,-4.594c0.306,-0.201 1.041,-0.683 3.957,-2.297c11.79,-6.523 17.114,-11.803 17.361,-12.014c2.027,-1.73 4.555,-4.516 4.705,-4.71c0.235,-0.305 0.323,-0.229 3.109,-3.678c3.316,-4.106 4.261,-6.238 5.45,-8.031Zm-26.385,72.191c0.142,-0.533 0.133,-0.529 0.282,-1.059c0.163,-0.579 0.356,-1.184 0.13,-1.4c-0.227,-0.218 -0.946,0.132 -1.02,0.168c-2.661,1.296 -3.471,1.38 -2.703,2.403c1.65,2.199 1.7,2.158 1.844,2.349c0.225,0.299 0.144,0.436 0.523,0.459c0.448,0.028 0.378,-0.147 0.468,-0.586c0.24,-1.17 0.21,-1.169 0.476,-2.334Zm24.511,34.736c2.691,2.325 2.637,2.394 2.763,2.452c0.546,0.253 0.746,-0.22 0.771,-0.28c0.401,-0.95 0.314,-0.978 1.177,-3.388c0.286,-0.798 -0.014,-0.938 -0.858,-0.893c-0.445,0.023 -1.27,0.086 -2.63,0.148c-1.642,0.075 -2.736,0.002 -2.867,0.135c-0.016,0.017 -0.036,0.47 -0.02,0.504c0.072,0.154 0.163,0.059 1.664,1.322Zm9.156,-97.044c0.204,-0.291 0.282,-0.255 0.567,-1.213c0.034,-0.114 0.064,-0.23 0.098,-0.345c0.371,-1.233 0.202,-1.328 -0.752,-2.189c-3.047,-2.75 -3.054,-2.734 -3.998,-3.605c-0.042,-0.038 -0.431,-0.397 -0.703,-0.088c-0.079,0.09 -0.204,0.917 -0.216,0.998c-0.204,1.351 -0.265,1.333 -0.502,2.674c-0.493,2.801 -0.432,2.808 -1.042,5.581c-0.333,1.516 -0.253,1.524 -0.569,3.037c-0.069,0.328 -0.156,0.375 0.096,0.584c0.299,0.249 0.337,0.089 0.61,-0.181c1.071,-1.061 5.437,-4.401 6.412,-5.254Zm-3.629,12.016c0.344,-1.544 0.446,-2.034 0.366,-2.32c-0.118,-0.418 -0.182,-0.396 -0.591,-0.541c-0.121,-0.043 -3.09,-0.64 -3.317,-0.659c-0.96,-0.08 -0.886,0.277 -2.33,3.079c-2.131,4.135 -2.129,4.129 -2.308,4.491c-0.753,1.516 -0.818,1.478 -0.88,1.611c-0.025,0.054 -0.261,0.564 0.243,0.71c0.26,0.075 0.266,0.016 3.385,-0.042c3.748,-0.069 4.1,0.058 4.408,-0.407c0.252,-0.38 0.824,-4.6 1.025,-5.922Zm-8.001,17.861c1.826,0.733 3.004,1.223 3.341,0.929c0.251,-0.219 0.213,-0.616 0.841,-2.623c1.007,-3.221 0.871,-3.255 1.97,-6.451c0.039,-0.113 0.103,-0.227 0.093,-0.346c-0.005,-0.059 -0.094,-0.074 -0.132,-0.121c-0.062,-0.078 -0.07,-0.217 -0.164,-0.249c-0.201,-0.068 -0.479,0.28 -1.111,0.764c-0.773,0.592 -6.083,4.465 -6.721,4.945c-0.102,0.077 -1.068,0.804 -1.279,0.947c-0.063,0.043 -0.878,0.598 -0.321,0.895c0.041,0.022 1.511,0.556 3.482,1.31Zm13.346,-35.586c1.285,-5.549 1.339,-5.528 1.445,-6.011c0.457,-2.081 0.598,-2.045 0.597,-2.23c-0.004,-0.859 -0.785,-0.125 -0.833,-0.079c-0.646,0.607 -6.515,4.588 -6.584,4.698c-0.163,0.265 -0.028,0.519 -0.007,0.558c0.01,0.019 2.189,1.852 4.334,3.909c0.042,0.04 0.393,0.377 0.693,0.207c0.137,-0.077 0.274,-0.635 0.288,-0.693c0.029,-0.118 0.036,-0.241 0.065,-0.359Zm-20.183,35.834c-0.093,0.046 -0.211,0.023 -0.304,0.069c-0.228,0.114 -0.174,0.201 -2.721,1.666c-1.459,0.839 -1.435,0.867 -2.897,1.693c-0.07,0.04 -2.684,1.603 -3.058,1.776c-0.247,0.115 -0.32,0.086 -0.329,0.358c-0.016,0.498 0.406,0.427 2.917,1.15c1.613,0.464 3.459,1.03 3.759,1.122c1.257,0.385 1.071,-0.305 1.416,-1.57c0.915,-3.355 0.76,-3.386 1.118,-4.519c0.072,-0.229 0.156,-0.454 0.232,-0.682c0.02,-0.061 0.227,-0.676 0.195,-0.778c-0.011,-0.033 -0.024,-0.021 -0.327,-0.286Zm-16.922,15.106c0.422,0.05 4.755,0.562 5.28,0.572c0.562,0.011 0.634,-0.561 0.434,-1.878c-0.059,-0.387 -0.232,-1.533 -0.534,-4.866c-0.061,-0.671 -0.032,-0.672 -0.04,-0.73c-0.041,-0.298 -0.027,-0.298 -0.038,-0.321c-0.019,-0.039 -0.43,-0.282 -0.477,-0.282c-0.015,0 -0.617,0.677 -0.67,0.737c-0.368,0.414 -0.941,1.06 -4.766,5.021c-0.883,0.914 -1,0.869 -0.996,1.201c0.005,0.46 0.857,0.461 1.807,0.547Zm29.949,-19.008c-0.471,1.536 -0.426,1.545 -0.962,3.057c-0.12,0.339 -0.235,0.407 0.056,0.625c0.397,0.299 0.412,-0.015 1.534,-0.845c0.676,-0.5 0.74,-0.404 2.624,-1.9c1.605,-1.274 1.62,-1.248 2.508,-2.036c0.846,-0.752 1.45,-0.967 0.559,-1.66c-1.919,-1.493 -1.951,-1.438 -3.878,-2.932c-0.851,-0.659 -0.985,0.699 -1.033,0.889c-0.191,0.75 -0.518,1.664 -0.959,3.326c-0.199,0.75 -0.212,0.741 -0.447,1.476Zm-6.952,4.8c-1.342,-0.509 -1.354,-0.464 -2.681,-1c-0.509,-0.206 -1.217,-0.61 -1.623,-0.087c-0.149,0.191 -0.094,0.208 -0.221,0.85c-0.279,1.407 -0.359,1.384 -0.726,3.014c-0.713,3.161 -0.916,3.123 -0.877,3.401c0.088,0.623 1.426,-0.617 1.597,-0.737c2.527,-1.768 5.115,-3.113 5.177,-3.149c1.33,-0.768 1.368,-0.689 1.479,-0.762c0.064,-0.042 0.767,-0.503 -0.349,-0.898c-0.89,-0.315 -0.894,-0.287 -1.775,-0.631Zm-14.184,46.696c0.802,2.427 0.73,2.44 1.463,4.888c0.283,0.946 0.296,1.53 0.578,1.663c0.381,0.179 0.406,0.063 0.678,-0.259c2.519,-2.985 2.586,-2.946 2.694,-3.267c0.164,-0.484 -0.756,-1.085 -1.332,-1.591c-2.588,-2.274 -2.651,-2.195 -3.435,-2.959c-0.031,-0.03 -0.233,-0.227 -0.384,-0.381c-0.045,-0.046 -0.5,-0.508 -0.758,-0.28c-0.255,0.226 -0.066,0.286 0.495,2.187Zm-8.398,-41.546c2.879,-0.586 4.072,-0.538 4.46,-0.912c0.197,-0.19 0.428,-0.995 0.454,-1.085c1.071,-3.728 2.133,-5.062 1.456,-5.104c-0.14,-0.009 -0.706,0.514 -0.762,0.565c-2.2,2.03 -2.436,1.96 -5.75,4.76c-1.073,0.906 -1.563,1.124 -2.179,1.617c-0.197,0.157 -0.284,0.167 -0.167,0.389c0.168,0.319 0.236,0.282 0.585,0.205c0.958,-0.209 0.939,-0.272 1.903,-0.435Zm38.903,-19.311c-0.144,1.898 -0.118,1.893 -0.403,3.772c-0.01,0.066 -0.117,0.773 0.155,0.814c0.642,0.097 0.528,-0.195 0.873,-0.744c0.116,-0.185 0.124,-0.175 1.491,-2.284c1.436,-2.216 2.841,-5.526 3.052,-6.023c0.229,-0.54 0.582,-0.624 0.127,-1.002c-0.249,-0.207 -0.285,-0.15 -0.575,-0.013c-1.206,0.568 -1.154,0.661 -2.365,1.21c-0.147,0.067 -1.634,0.74 -1.805,0.909c-0.482,0.475 -0.448,1.037 -0.549,3.361Zm-54.12,18.762c-0.313,1.001 -0.681,2.175 -0.594,2.299c0.287,0.407 0.797,-0.188 0.843,-0.241c0.779,-0.907 5.185,-4.935 5.432,-5.154c0.723,-0.64 0.744,-0.614 0.78,-0.689c0.032,-0.066 0.019,-0.54 -0.011,-0.582c-0.071,-0.1 -3.43,-1.221 -3.653,-1.204c-0.06,0.005 -0.34,0.026 -0.594,0.455c-1.587,2.677 -2.094,4.685 -2.203,5.118Zm28.682,-16.525c-1.977,3.439 -2.003,3.419 -2.523,4.193c-0.16,0.238 -0.364,0.452 -0.477,0.716c-0.178,0.417 -0.026,0.542 0.424,0.458c0.069,-0.013 0.082,-0.015 0.7,-0.528c0.669,-0.555 5.913,-3.711 6.001,-3.767c1.015,-0.647 1.293,-0.519 1.226,-1.056c-0.041,-0.326 -0.549,-0.316 -1.57,-0.669c-0.956,-0.33 -0.932,-0.382 -1.895,-0.69c-1.128,-0.36 -1.132,0.235 -1.886,1.343Zm4.11,-4.194c-0.477,0.38 -1.679,1.162 -1.667,1.278c0.011,0.109 0.255,0.479 0.326,0.513c0.109,0.053 0.133,-0.018 1.445,0.465c0.285,0.105 2.452,0.815 2.596,0.814c0.61,-0.005 0.833,-1.062 1.247,-1.786c0.614,-1.073 1.637,-3.383 2.864,-5.334c0.032,-0.051 0.345,-0.548 0.268,-0.707c-0.14,-0.289 -0.572,-0.049 -0.614,-0.025c-0.103,0.058 -0.295,0.315 -1.459,1.19c-0.403,0.303 -3.317,2.302 -5.006,3.592Zm-6.303,26.421c0.461,-0.362 2.094,-1.604 2.095,-1.612c0.008,-0.07 -0.21,-0.512 -0.296,-0.575c-0.297,-0.219 -0.342,-0.114 -4.418,-1.321c-2.343,-0.694 -2.398,-0.654 -2.569,-0.533c-0.293,0.209 -0.13,0.291 -0.007,1.753c0.207,2.469 0.251,2.46 0.535,4.924c0.093,0.81 0.399,1.057 0.985,0.49c0.482,-0.467 2.658,-2.349 3.675,-3.127Zm16.861,-21.748c-0.548,0.024 -0.543,0.002 -1.094,0.047c-1.502,0.125 -1.497,0.03 -3.006,0.082c-1.952,0.068 -2.584,-0.409 -2.954,0.941c-0.392,1.429 -0.591,1.674 -0.863,2.597c-0.823,2.799 -1.065,2.761 -0.976,2.998c0.047,0.126 0.217,0.18 0.264,0.307c0.596,-0.429 0.596,-0.421 0.643,-0.463c0.55,-0.497 0.553,-0.489 2.736,-2.098c4.18,-3.08 4.195,-3.046 5.263,-3.748l-0.013,-0.663Zm-16.217,57.023c-0.031,-0.106 0.045,-0.225 0.013,-0.332c-0.068,-0.231 -0.2,-0.16 -1.4,-2.658c-1.023,-2.129 -2.24,-6.592 -2.381,-7.858c-0.119,-1.077 -0.296,-3.265 -0.399,-3.316c-0.086,-0.043 -0.158,0.133 -0.254,0.138c-0.083,0.005 -0.152,-0.15 -0.225,-0.11c-0.391,0.214 -0.182,5.787 -0.2,8.53c-0.012,1.95 0.186,1.991 1.666,3.248c1.121,0.953 1.164,0.899 2.17,1.973c0.312,0.333 0.274,0.438 0.731,0.455c0.095,0.004 0.181,-0.075 0.277,-0.071Zm25.8,-71.036c0.87,4.382 0.981,5.958 1.295,6.103c0.356,0.165 0.73,0.178 2.361,-0.708c0.208,-0.113 1.244,-0.538 2.581,-1.226c0.058,-0.03 0.562,-0.289 0.34,-0.738c-0.079,-0.16 -5.541,-5.269 -6.292,-6.123c-0.453,-0.515 -0.863,-0.599 -0.862,0.086c0,0.213 0.047,0.206 0.577,2.605Zm-9.829,-11.164c-0.485,1.013 -0.349,1.203 -3.755,5.637c-1.953,2.541 -2.561,2.572 -1.99,3.315c0.043,0.056 2.526,1.859 2.606,1.919c0.929,0.699 1.469,1.128 1.657,-0.018c0.187,-1.141 0.267,-1.119 0.444,-2.262c0.147,-0.95 0.981,-5.674 1.377,-7.158c0.03,-0.114 0.336,-1.258 0.2,-1.455c-0.069,-0.101 -0.246,-0.093 -0.269,-0.092c-0.152,0.006 -0.113,0.109 -0.271,0.115Zm-33.249,54.747c-1.81,3.124 -1.736,3.162 -2.58,4.542c-0.597,0.977 -0.638,0.965 -0.623,1.115c0.008,0.08 0.122,0.105 0.18,0.16c0.193,0.182 0.22,0.091 0.475,0.012c1.843,-0.574 1.864,-0.472 3.731,-0.986c2.599,-0.716 3.369,-0.338 3.054,-1.422c-0.101,-0.349 -0.239,-0.279 -2.051,-4.05c-0.021,-0.043 -0.613,-1.13 -0.646,-1.153c-0.458,-0.306 -0.727,0.233 -0.756,0.291c-0.307,0.616 -0.304,0.613 -0.785,1.49Zm24.004,-40.234c-1.604,3.316 -1.791,3.601 -1.983,3.893c-0.152,0.232 -0.332,0.45 -0.446,0.702c-0.019,0.042 -0.224,0.497 0.274,0.504c0.361,0.005 0.825,-0.717 3.81,-2.744c0.183,-0.124 3.043,-2.171 3.059,-2.183c0.926,-0.697 1.828,-1.089 1.807,-1.608c-0.021,-0.507 -1.128,-0.951 -2.705,-2.155c-0.563,-0.429 -1.431,-1.255 -1.873,-0.526c-0.07,0.116 -1.869,3.965 -1.943,4.117Zm27.777,-11.205c-0.008,-0.182 -0.099,-2.113 -0.111,-2.274c-0.007,-0.084 -0.091,-1.126 -0.925,-0.504c-0.645,0.481 -5.765,3.696 -6.414,4.132c-0.879,0.59 -2.089,0.88 -1.173,1.773c0.29,0.283 2.037,1.986 3.646,3.509c2.193,2.075 2.215,2.044 3.059,2.946c0.536,0.573 0.786,0.444 0.853,0.409c0.154,-0.079 0.28,-0.144 0.584,-2.081c0.624,-3.984 0.489,-6.773 0.481,-7.909Zm-50.709,41.347c0.2,1.784 0.289,1.881 0.441,3.76c0.028,0.348 0.052,1.685 0.948,0.526c0.177,-0.228 4.415,-4.752 5.179,-5.388c0.216,-0.179 0.203,-0.182 0.418,-0.37c0.05,-0.044 0.15,-0.046 0.168,-0.11c0.026,-0.09 -0.208,-0.512 -0.28,-0.514c-0.332,-0.009 -0.278,0.31 -4.085,0.766c-2.328,0.279 -2.484,0.434 -2.637,0.586c-0.104,0.103 -0.144,0.302 -0.15,0.33c-0.043,0.208 0.04,0.206 -0.002,0.413Zm-1.878,-10.914c-0.094,0.993 -0.091,1.002 -0.064,1.085c0.013,0.041 0.459,0.263 0.517,0.253c0.226,-0.039 0.14,-0.188 2.349,-1.649c0.236,-0.156 1.806,-1.194 2.929,-1.995c0.127,-0.091 1.11,-0.679 1.124,-0.722c0.062,-0.181 -0.188,-0.567 -0.366,-0.612c-0.171,-0.043 -0.185,0.062 -2.193,-0.276c-0.215,-0.036 -0.205,-0.082 -2.668,-0.538c-0.562,-0.104 -1.378,-0.375 -1.436,0.707c-0.102,1.879 -0.084,1.873 -0.192,3.748Zm-8.453,10.966c-1.108,1.055 -1.653,1.433 -0.763,2.137c0.086,0.068 1.625,1.18 1.767,1.283c0.06,0.044 0.6,0.433 0.824,0.427c0.39,-0.01 0.375,-0.092 0.517,-0.45c0.092,-0.232 0.203,-0.755 0.712,-1.908c0.752,-1.705 1.655,-4.348 2.196,-5.289c0.047,-0.081 0.53,-0.921 0.31,-1.13c-0.234,-0.223 -0.593,0.096 -0.632,0.13c-0.104,0.093 -0.021,0.168 -4.932,4.799Zm18.333,40.179c3.879,3.455 3.778,3.561 4.237,3.993c0.046,0.043 0.944,0.89 0.745,-0.257c-0.043,-0.246 -0.152,-0.208 -0.961,-2.97c-0.386,-1.317 -0.436,-1.293 -0.772,-2.625c-0.09,-0.356 -0.757,-2.557 -0.761,-2.561c-0.041,-0.048 -0.485,-0.113 -0.568,-0.073c-0.103,0.049 -1.97,2.013 -2.412,2.462c-0.385,0.392 -0.588,0.317 -0.554,0.87c0.023,0.365 0.69,0.842 1.046,1.161Zm-3.207,-6.047c-0.065,-1.312 -0.062,-1.308 -0.158,-2.623c-0.1,-1.376 -0.008,-1.409 -0.212,-1.649c-0.367,-0.431 -0.466,-0.209 -0.939,0.093c-3.575,2.279 -3.611,2.335 -3.646,2.696c-0.026,0.262 -0.056,0.328 1.127,1.4c0.796,0.721 2.821,2.428 3.232,2.844c0.041,0.041 0.453,0.459 0.705,0.156c0.102,-0.123 0.052,-0.604 0.047,-0.656c-0.118,-1.133 -0.123,-1.128 -0.155,-2.262Zm7.893,-21.751c0.258,-0.798 0.326,-1.04 0.352,-1.131c0.851,-2.995 1.201,-2.923 1.887,-4.558c0.156,-0.373 0.264,-0.559 -0.142,-0.579c-0.268,-0.014 -1.033,0.891 -1.109,0.981c-0.124,0.146 -0.45,0.531 -1.667,1.716c-1.429,1.391 -1.202,1.571 -2.856,6.538c-0.286,0.858 -0.97,1.907 -0.396,1.94c0.469,0.026 0.421,-0.117 0.775,-0.434c0.717,-0.642 0.735,-0.614 2.12,-1.669c0.656,-0.5 0.664,-1.223 1.037,-2.803Zm7.18,-22.34c-0.221,-0.481 -0.198,-0.496 -0.238,-0.517c-0.025,-0.013 -0.023,-0.012 -0.347,-0.033c-2.454,-0.161 -3.043,-0.42 -4.52,-0.672c-1.326,-0.227 -1.877,-0.564 -2.237,0.594c-0.585,1.881 -0.633,1.856 -1.236,3.727c-0.514,1.597 -1.091,2.094 -0.27,2.042c0.149,-0.009 1.118,-0.693 1.208,-0.743c3.493,-1.955 3.403,-2.095 7.639,-4.398Zm-31.073,21.885c-0.285,0.58 -0.539,0.564 -0.311,1.166c0.065,0.173 0.578,0.42 2.183,1.268c0.821,0.434 0.816,0.433 1.619,0.902c0.694,0.405 0.966,0.104 0.805,-0.679c-0.155,-0.759 -0.516,-1.97 -1.028,-5.966c-0.011,-0.087 -0.124,-0.964 -0.277,-1.059c-0.05,-0.031 -0.477,0.019 -0.506,0.055c-0.095,0.121 0.008,0.179 -1.613,2.883c-0.215,0.359 -0.679,1.143 -0.872,1.43Zm10.911,-20.71c-1.164,0.816 -1.63,0.782 -1.302,2.301c0.066,0.308 0.072,0.3 0.515,1.941c0.134,0.497 -0.052,0.633 0.409,0.864c0.264,0.132 0.323,0.153 0.468,-0.097c0.34,-0.586 2.956,-5.097 4.47,-7.186c0.058,-0.08 0.621,-0.856 0.599,-1.085c-0.026,-0.276 -0.56,-0.085 -0.606,-0.069c-0.244,0.087 -0.15,0.223 -2.591,1.949c-0.157,0.111 -1.802,1.274 -1.962,1.383Zm22.056,-3.042c0.737,-1.792 0.564,-1.844 1.206,-3.677c0.238,-0.679 0.408,-1.365 0.594,-1.826c0.238,-0.588 0.292,-0.574 0.277,-0.778c-0.005,-0.071 -0.335,-0.34 -0.392,-0.326c-0.29,0.069 -0.171,0.27 -3.112,2.057c-1.931,1.174 -3.898,2.519 -5.188,3.135c-0.058,0.027 -0.665,0.318 -0.31,0.734c0.093,0.108 0.622,0.155 0.677,0.16c1.842,0.163 4.894,0.916 5.652,0.85c0.144,-0.013 0.398,-0.153 0.43,-0.171c0.103,-0.057 0.061,-0.1 0.166,-0.159Zm18.203,-11.172c-2.843,2.217 -3.278,2.398 -3.238,2.963c0.019,0.27 2.493,1.879 3.726,2.922c0.046,0.039 0.465,0.394 0.651,0.373c0.057,-0.006 0.352,-0.038 0.389,-0.607c0.017,-0.27 0.008,-0.268 0.149,-3.38c0.075,-1.665 0.452,-3.169 0.199,-3.376c-0.253,-0.207 -0.623,0.071 -0.667,0.103c-0.101,0.075 -0.071,0.109 -1.209,1.001Zm-37.928,18.04c0.116,-0.021 0.236,0.056 0.352,0.036c0.235,-0.042 0.2,-0.099 0.404,-0.284c2.183,-1.991 4.664,-3.924 4.759,-4.003c1.646,-1.374 2.416,-1.952 2.69,-2.176c0.365,-0.298 0.527,-0.245 0.482,-0.715c-0.03,-0.32 -0.117,-0.279 -0.416,-0.404c-2.109,-0.88 -2.594,-1.772 -3.435,-0.353c-2.058,3.472 -2.103,3.443 -2.278,3.747c-1.485,2.569 -2.228,3.189 -2.507,3.796c-0.05,0.109 0.001,0.248 -0.049,0.357Zm-10.122,28.836c0.084,-0.114 0.263,-0.132 0.346,-0.246c0.049,-0.066 0.116,-0.666 0.122,-0.724c0.213,-1.897 0.793,-3.562 0.912,-4.936c0.074,-0.862 -0.358,-0.901 -2.193,-1.85c-1.79,-0.926 -1.727,-1.027 -1.883,-1.107c-0.044,-0.023 -0.46,-0.237 -0.623,0.013c-0.171,0.261 0.337,0.969 0.523,1.483c0.408,1.128 0.383,1.129 0.82,2.24c1.1,2.798 1.268,3.378 1.355,3.679c0.223,0.772 0.078,0.85 0.62,1.448Zm10.862,-16.544c-0.784,-0.019 -0.782,-0.041 -0.847,-0.021c-0.042,0.013 -0.375,0.116 -0.228,0.502c0.098,0.257 0.275,0.477 0.416,0.714c0.459,0.767 1.989,3.912 2.228,4.089c0.247,0.183 0.526,-0.007 0.563,-0.032c0.281,-0.191 0.058,-0.398 2.786,-3.209c0.831,-0.857 0.926,-0.781 0.939,-0.884c0.009,-0.074 -0.225,-0.544 -0.272,-0.56c-0.129,-0.044 -2.825,-0.272 -5.587,-0.599Zm-8.817,4.664c0.323,1.926 0.22,1.933 0.274,2.196c0.007,0.033 0.245,0.399 0.263,0.406c0.527,0.207 0.401,-0.179 1.122,-1.511c0.135,-0.249 0.194,-0.211 1.761,-3.065c0.285,-0.519 0.272,-0.519 0.585,-1.017c0.196,-0.312 0.62,-1.194 0.827,-1.49c0.035,-0.051 0.408,-0.582 -0.187,-0.749c-0.385,-0.108 -0.468,0.004 -4.469,-0.567c-0.709,-0.101 -0.705,-0.11 -0.752,-0.097c-0.592,0.164 -0.448,0.361 -0.319,0.963c0.307,1.435 0.246,2.152 0.895,4.93Zm18.911,36.271c-2.199,0.582 -2.727,0.595 -2.81,0.692c-0.004,0.005 -0.029,0.482 -0.025,0.489c0.098,0.171 0.207,0.011 2.174,1.142c0.365,0.21 0.368,0.196 0.736,0.41c2.627,1.527 2.588,1.588 3.008,1.84c0.055,0.033 0.897,0.538 0.75,-0.288c-0.032,-0.18 -0.875,-1.377 -1.582,-2.982c-0.037,-0.085 -0.317,-0.721 -0.517,-1.035c-0.536,-0.843 -0.757,-0.476 -1.735,-0.269Zm19.903,6.431c0.005,-0.144 -0.037,-0.136 -0.031,-0.283c0.011,-0.307 0.064,-0.302 0.053,-0.327c-0.021,-0.049 -0.406,-0.239 -0.443,-0.257c-1.646,-0.813 -1.68,-0.751 -3.188,-1.795c-2.223,-1.539 -2.104,-1.706 -2.326,-1.782c-0.051,-0.018 -0.539,-0.185 -0.676,0.08c-0.049,0.095 0.054,0.651 0.064,0.706c0.343,1.854 0.361,2.681 0.454,3.051c0.269,1.069 0.757,0.532 6.092,0.606Zm-35.047,-15.343c-0.03,-0.105 -0.004,-0.22 -0.034,-0.325c-0.02,-0.07 -0.371,-0.651 -0.614,-2.254c-0.018,-0.121 -0.121,-0.797 -0.152,-1.52c-0.044,-1.006 0.031,-1.045 -0.12,-1.172c-0.121,-0.102 -0.31,-0.131 -0.465,-0.099c-0.121,0.025 -0.106,0.061 -1.391,0.674c-0.976,0.466 -0.141,1.224 0.658,2.498c0.358,0.57 0.425,0.519 0.772,1.113c0.268,0.46 0.644,0.875 0.875,1.359l0.472,-0.273Zm9.008,-15.028c-0.443,1.829 -0.438,1.834 -0.425,1.887c0.013,0.053 0.087,0.064 0.128,0.099c0.115,0.098 0.238,0.309 1.135,-0.224c1.411,-0.838 2.436,-0.692 1.622,-2.122c-0.548,-0.963 -0.567,-0.945 -1.071,-1.934c-0.045,-0.089 -0.081,-0.182 -0.126,-0.271c-0.108,-0.214 -0.118,-0.228 -0.362,-0.242c-0.427,-0.023 -0.348,0.149 -0.417,0.568c-0.188,1.135 -0.195,1.126 -0.484,2.238Zm7.986,-49.247c-0.691,1.105 -3.004,4.569 -3.268,4.964c-0.554,0.83 -1.569,1.977 -1.48,2.217c0.159,0.427 0.317,0.274 0.684,0.01c1.191,-0.857 1.103,-0.964 2.315,-1.784c4.123,-2.787 4.459,-2.959 4.35,-3.463c-0.077,-0.354 -0.146,-0.318 -1.379,-2.29c-0.033,-0.053 -0.331,-0.53 -0.729,-0.281c-0.054,0.034 -0.036,0.046 -0.493,0.627Zm4.972,73.184c-1.416,-0.275 -1.406,-0.276 -1.529,-0.297c-0.054,-0.009 -0.564,-0.096 -0.674,0.12c-0.11,0.216 -0.023,0.221 0.164,0.376c0.08,0.066 0.103,0.185 0.487,0.368c0.639,0.305 5.284,3.695 6.111,4.387c0.386,0.323 0.436,0.607 0.786,0.25c0.065,-0.066 0.18,-0.093 0.212,-0.18c0.034,-0.094 0.01,-0.095 -0.152,-1.127c-0.038,-0.241 -0.458,-2.918 -0.491,-3.006c-0.234,-0.608 -0.451,-0.416 -4.913,-0.891Zm18.012,-82.533c0.616,-1.405 0.639,-1.391 0.69,-1.514c0.024,-0.058 0.339,-0.813 -0.3,-0.724c-0.065,0.009 -0.161,0.022 -0.646,0.507c-1.208,1.205 -4.136,3.365 -4.137,3.366c-0.362,0.256 -0.517,0.188 -0.509,0.632c0.006,0.318 0.109,0.282 0.418,0.329c2.416,0.365 2.401,0.441 2.611,0.469c0.982,0.132 0.999,-0.704 1.872,-3.064Zm-37.729,63.118c-0.305,1.291 -0.466,1.652 -0.158,1.81c0.349,0.179 1.118,-0.642 1.805,-1.053c0.045,-0.027 1.981,-1.282 2.054,-1.344c0.543,-0.459 -0.012,-0.976 -0.505,-1.662c-0.386,-0.538 -0.841,-1.046 -0.982,-1.245c-0.048,-0.068 -0.576,-0.817 -0.643,-0.82c-0.075,-0.004 -0.503,0.226 -0.535,0.284c-0.486,0.886 -0.978,3.702 -1.036,4.03Zm-6.784,1.538c0.142,2.329 0.108,3.221 0.579,3.264c0.195,0.018 0.326,0.03 2.228,-1.018c0.242,-0.133 0.426,-0.449 0.091,-0.809c-1.194,-1.285 -1.234,-1.24 -2.309,-2.626c-0.111,-0.143 -0.1,-0.217 -0.41,-0.246c-0.282,-0.026 -0.312,0.031 -0.325,0.312c-0.004,0.091 0.011,0.083 0.146,1.123Zm13.93,-50.358c0.12,1.304 0.166,1.292 0.238,2.599c0.017,0.3 -0.013,0.344 0.258,0.483c0.095,0.049 0.19,0.143 0.295,0.125c0.032,-0.006 0.502,-0.98 1.518,-2.531c1.335,-2.037 1.783,-2.793 2.8,-4.039c0.047,-0.057 0.503,-0.616 0.497,-0.776c-0.003,-0.073 -0.032,-0.598 -0.915,0.044c-0.966,0.703 -0.897,0.785 -2.343,1.728c-1.569,1.022 -2.258,1.159 -2.352,1.963c-0.016,0.134 0.021,0.27 0.005,0.404Zm-11.898,24.958c2.107,0.291 3.535,0.65 3.886,0.325c0.285,-0.265 0.187,-0.497 0.006,-2.007c-0.111,-0.927 -0.165,-0.913 -0.276,-1.841c-0.033,-0.276 -0.038,-0.559 -0.106,-0.829c-0.182,-0.723 -0.855,-0.068 -0.907,-0.017c-0.277,0.269 -2.344,2.283 -3.497,3.325c-0.243,0.22 -0.348,0.171 -0.358,0.5c-0.007,0.242 0.121,0.364 0.145,0.387l1.107,0.157Zm41.586,-30.636c-0.412,2.472 -0.652,3.261 -0.556,3.392c0.287,0.393 1.006,-0.317 1.07,-0.381c0.638,-0.631 3.78,-2.974 3.782,-2.978c0.134,-0.172 0.207,-0.6 0.184,-0.643c-0.085,-0.16 -1.754,-1.234 -2.776,-2.051c-0.057,-0.045 -0.523,-0.418 -0.81,-0.406c-0.35,0.015 -0.425,0.392 -0.434,0.44c-0.041,0.209 -0.013,0.211 -0.459,2.626Zm-26.87,9.849c-0.09,0.053 -1.029,0.605 -1.061,0.749c-0.11,0.489 0.799,0.752 1.706,1.223c0.194,0.101 1.212,0.752 1.668,0.355c0.211,-0.184 0.181,-0.21 1.893,-3.065c1.677,-2.795 1.925,-2.785 1.749,-3.057c-0.193,-0.298 -0.657,0.006 -0.704,0.037c-0.18,0.118 -0.118,0.197 -2.159,1.612c-2.847,1.973 -2.85,1.968 -3.092,2.146Zm-13.137,46.447c0.088,-0.117 0.289,-0.107 0.377,-0.223c0.073,-0.097 0.072,-0.716 0.072,-0.779c-0.002,-2.225 1.226,-5.047 1.23,-5.263c0.002,-0.123 -0.115,-0.256 -0.235,-0.283c-0.193,-0.044 -2.119,1.176 -2.612,1.414c-0.121,0.058 -0.928,0.449 -1.472,0.8c-0.414,0.267 -0.574,0.221 -0.518,0.706c0.035,0.304 0.134,0.244 0.35,0.461c0.205,0.205 1.01,1.069 1.097,1.163c0.775,0.832 1.423,1.713 1.712,2.005Zm-8.954,-20.259c0.161,-0.075 0.372,0.045 0.533,-0.03c0.18,-0.084 -0.094,-0.259 1.112,-2.221c0.525,-0.855 0.485,-0.872 1.008,-1.733c0.612,-1.008 0.417,-1.189 -0.396,-1.749c-0.217,-0.15 -1.507,-1.179 -1.648,-1.225c-0.079,-0.026 -0.396,0.118 -0.435,0.203c-0.121,0.267 -0.11,1.099 -0.108,1.195c0.041,3.094 -0.159,3.889 -0.065,5.559Zm12.125,27.913c0.133,0.707 0.484,2.638 0.855,2.722c0.488,0.111 1.052,-0.433 3.097,-1.584c0.896,-0.505 -0.174,-1.197 -0.285,-1.296c-1.392,-1.245 -1.411,-1.212 -2.79,-2.461c-0.051,-0.046 -0.527,-0.477 -0.629,-0.581c-0.042,-0.043 -0.482,-0.492 -0.737,-0.156c-0.267,0.352 0.423,3.093 0.489,3.356Zm24.961,17.794c-0.941,-0.042 -0.931,-0.065 -1.873,-0.151c-0.564,-0.052 -0.855,-0.192 -0.788,0.374c0.042,0.353 0.418,0.244 1.478,0.836c4.515,2.523 5.016,2.91 6.467,3.427c0.343,0.122 0.443,0.191 0.573,-0.146c0.151,-0.39 -0.67,-0.628 -3.283,-2.926c-1.356,-1.192 -1.363,-1.271 -2.573,-1.414Zm-27.767,-39.104l-1.107,0.306c-0.292,0.337 0.153,0.724 0.2,0.766c0.211,0.184 1.993,1.736 2.623,2.31c1.109,1.009 1.185,-0.284 2.14,-1.951c0.553,-0.965 0.477,-1.007 1.14,-1.888c0.233,-0.31 0.345,-0.377 0.063,-0.641c-0.438,-0.41 -0.498,0.094 -3.558,0.743c-0.121,0.026 -0.599,0.127 -1.501,0.355Zm38.567,41.159c-0.245,0.749 -0.732,1.991 -0.595,2.269c0.2,0.407 1.526,0.17 2.879,-0.507c1.589,-0.796 1.509,-0.934 3.112,-1.688c0.27,-0.127 0.333,-0.107 0.35,-0.409c0.03,-0.525 -0.195,-0.412 -0.709,-0.499c-1.078,-0.182 -3.686,-1.094 -3.8,-1.098c-0.05,-0.002 -0.41,-0.012 -0.585,0.214c-0.085,0.11 -0.134,0.424 -0.651,1.718Zm-30.186,-16.531c-0.058,-0.338 -0.036,-1.599 -1.189,-0.912c-0.936,0.559 -0.919,0.573 -1.868,1.113c-0.937,0.533 -0.934,0.856 -0.933,0.964c0.003,0.288 0.682,1.099 0.754,1.185c1.161,1.387 2.119,1.921 3.076,2.582c0.738,0.51 0.803,1.005 1.267,0.472c0.038,-0.044 0.112,-0.068 0.12,-0.125c0.013,-0.095 -0.173,-0.686 -0.191,-0.744c-0.158,-0.503 -0.311,-1.466 -1.035,-4.536Zm13.087,12.011c0.605,0.931 0.696,0.927 1.805,1.026c0.82,0.073 2.409,0.139 2.619,0.147c0.718,0.03 0.712,-0.451 0.112,-0.846c-4.69,-3.086 -5.857,-4.43 -6.12,-4.462c-0.741,-0.092 -0.296,0.704 -0.265,0.76c0.45,0.806 0.484,0.776 0.923,1.595c0.476,0.886 0.463,0.884 0.926,1.781Zm-9.069,-5.829c1.585,-0.41 2.076,-0.567 2.655,-0.761c0.41,-0.138 0.56,-0.069 0.561,-0.497c0.001,-0.401 -0.138,-0.347 -1.006,-1.119c-2.771,-2.463 -3.584,-3.287 -3.881,-3.588c-0.052,-0.053 -1.247,-1.264 -0.907,0.191c0.646,2.763 0.617,2.768 0.677,3.007c0.668,2.662 0.585,2.73 0.82,2.88c0.471,0.3 0.498,0.044 1.081,-0.112Zm-15.596,-26.101c-0.58,2.12 -0.668,2.995 -0.627,3.054c0.256,0.373 1.016,-0.094 1.091,-0.14c1.139,-0.699 3.979,-2.125 4.053,-2.239c0.216,-0.333 -0.114,-0.661 -0.155,-0.701c-1.029,-1.021 -2.17,-1.883 -2.995,-2.701c-0.569,-0.565 -0.871,-0.319 -0.97,0.478c-0.022,0.181 -0.094,0.763 -0.398,2.25Zm46.93,-53.751c-0.292,-1.672 -0.347,-1.66 -0.515,-3.354c-0.053,-0.532 0.127,-0.786 -0.413,-0.782c-0.331,0.002 -0.308,0.089 -0.397,0.404c-0.535,1.891 -0.581,1.867 -1.214,3.733c-0.394,1.163 -0.765,1.409 0.234,2.13c1.842,1.329 1.843,1.326 2.039,1.475c0.577,0.439 0.994,0.549 0.937,-0.169c-0.02,-0.257 -0.115,-0.503 -0.166,-0.757c-0.266,-1.343 -0.222,-1.345 -0.507,-2.681Zm-22.817,75.877c-0.316,0.346 -1.993,2.138 -1.992,2.357c0.003,0.535 0.297,0.302 2.436,0.539c1.714,0.189 3.481,0.474 3.782,0.523c0.43,0.069 1.111,-0.114 0.42,-0.733c-1.337,-1.198 -2.635,-2.944 -2.84,-3.22c-0.048,-0.065 -0.491,-0.66 -0.918,-0.426c-0.135,0.074 -0.116,0.092 -0.887,0.96Zm-24.177,-41.688c0.459,-0.115 0.542,-0.001 1.277,-0.775c1.466,-1.545 1.64,-1.537 2.515,-2.364c0.935,-0.885 0.281,-1.471 -0.206,-3.942c-0.065,-0.329 -0.033,-0.428 -0.362,-0.434c-0.475,-0.008 -0.328,0.235 -0.829,1.527c-0.675,1.741 -0.696,1.729 -0.753,1.881c-1.349,3.55 -1.52,3.477 -1.623,3.79c-0.033,0.101 0.014,0.217 -0.019,0.318Zm23.477,-30.06c-0.642,0.55 -1.051,0.74 -0.444,1.613c0.596,0.856 0.915,1.791 1.18,1.939c0.255,0.142 0.304,0.172 0.492,-0.051c0.366,-0.434 0.319,-0.798 1.345,-2.754c0.778,-1.485 0.697,-1.516 1.496,-2.999c0.843,-1.565 1.009,-1.595 0.826,-1.82c-0.259,-0.317 -0.735,0.197 -0.779,0.245c-0.306,0.33 -1.955,2.109 -4.116,3.826Zm-25.535,58.208c0.01,-0.075 0.09,-0.13 0.1,-0.205c0.019,-0.138 -0.248,-2.542 -0.37,-3.099c-0.267,-1.218 -1.645,-4.66 -1.894,-5.661c-0.146,-0.587 -0.169,-0.575 -0.353,-1.151c-0.159,-0.496 -0.408,-0.623 -0.465,-0.652c-0.286,-0.145 -0.32,0.31 -0.323,0.348c-0.029,0.385 0.197,0.574 0.362,1.491c0.285,1.59 0.774,2.727 1.374,4.911c0.365,1.328 0.54,1.273 0.79,2.631c0.021,0.116 0.234,1.275 0.483,1.395c0.089,0.043 0.207,-0.051 0.296,-0.008Zm5.062,-43.12c0.05,-1.347 0.112,-1.353 0.064,-1.46c-0.01,-0.023 -0.467,-0.243 -0.509,-0.244c-0.058,-0 -0.072,0.093 -0.116,0.131c-0.208,0.184 -1.619,1.433 -2.53,2.387c-0.972,1.017 -1.69,1.514 -0.381,2.021c0.629,0.244 2.525,0.832 2.576,0.843c0.378,0.075 0.608,-0.337 0.611,-0.346c0.1,-0.332 0.27,-3.065 0.286,-3.332Zm13.979,33.791c0.143,-0.74 0.25,-1.34 0.271,-1.456c0.334,-1.883 0.445,-1.968 0.164,-2.159c-0.349,-0.236 -0.377,-0.078 -0.698,0.194c-1.837,1.56 -2.764,1.499 -1.974,2.766c0.434,0.696 1.279,2.436 1.329,2.464c0.05,0.028 0.515,0.009 0.545,-0.019c0.107,-0.099 0.072,-0.118 0.363,-1.791Zm-4.784,-1.929c0.565,-0.404 0.622,-0.375 0.87,-1.021c0.181,-0.47 0.055,-0.505 1.614,-4.935c0.187,-0.53 0.365,-0.869 -0.191,-0.771c-0.086,0.015 -0.247,0.043 -0.717,0.819c-0.826,1.361 -0.953,1.267 -2.065,2.868c-1.091,1.571 -1.109,1.557 -1.193,1.701c-0.553,0.942 -0.603,0.902 -1.18,1.838c-0.185,0.3 -0.248,0.357 0.005,0.596c0.289,0.273 0.331,0.094 0.684,-0.088c1.07,-0.552 1.09,-0.488 2.172,-1.006Zm-2.618,-35.113c0.281,0.055 2.124,0.446 2.272,0.434c0.605,-0.049 0.479,-0.873 0.467,-0.957c-0.113,-0.738 -0.141,-0.728 -0.244,-1.471c-0.181,-1.305 -0.156,-2.112 -1.286,-1.433c-2.339,1.405 -3.07,1.83 -3.836,2.119c-0.068,0.025 -0.694,0.262 -0.568,0.701c0.077,0.266 0.318,0.008 3.195,0.608Zm6.573,45.711c-0.009,-1.733 -0.005,-2.574 -0.034,-2.684c-0.101,-0.373 -0.448,-0.349 -0.496,-0.345c-0.179,0.013 -0.981,0.468 -1.063,0.515c-1.245,0.708 -1.388,0.646 -1.691,0.896c-0.645,0.532 0.224,1.099 1.531,2.462c1.002,1.045 1.349,1.749 1.74,1.151c0.087,-0.134 0.073,-0.146 0.013,-1.995Zm-4.059,2.266c0.228,3.955 0.224,3.954 0.215,4.491c-0.008,0.469 -0.159,0.685 0.313,0.687c0.365,0.002 0.301,-0.147 1.341,-1.21c1.608,-1.643 1.934,-1.837 1.32,-2.505c-0.19,-0.207 -1.872,-1.918 -2.591,-2.753c-0.04,-0.046 -0.271,-0.465 -0.62,0.019c-0.059,0.082 -0.102,0.142 0.023,1.27Z" style="fill:url(#_Linear1);"/><path d="M83.456,55.52c-0.522,-2.713 -1.201,-2.43 -8.901,-6.978c-4.801,-2.836 -4.828,-2.784 -5.241,-3.038c-0.29,-0.178 -1.794,-1.04 -1.896,-1.104c-0.176,-0.111 -3.286,-1.878 -3.366,-1.939c-0.654,-0.506 -0.133,-0.74 1.107,-2.747c2.349,-3.802 2.053,-4.925 3.158,-4.227c1.286,0.812 1.339,0.711 2.63,1.519c0.071,0.045 10.485,6.048 10.501,6.059c0.576,0.379 4.186,2.359 5.47,3.246c0.592,0.409 1.862,1.522 2.996,3.304c0.124,0.194 1.011,1.986 1.096,2.23c0.312,0.901 0.647,3 0.669,3.698c0.015,0.461 -0.004,30.085 -0.005,32.701c-0.002,2.44 0.877,9.615 -6.235,13.736c-9.159,5.307 -9.864,5.927 -12.662,6.994c-2.573,0.981 -5.198,2.139 -11.301,1.968c-2.864,-0.08 -5.092,-0.672 -5.251,-0.903c-0.07,-0.102 -0.054,-0.258 -0.007,-0.373c0.038,-0.094 6.598,-3.897 6.822,-4.039c0.504,-0.319 17.946,-10.542 18.292,-10.738c2.459,-1.393 2.248,-3.229 2.236,-6.644c-0.054,-16.616 0.098,-30.585 -0.113,-32.725Z" style="fill:#595959;"/><path d="M191.548,48.184c0.786,-0.108 1.867,-0.29 2.982,-0.226c0.733,0.042 2.263,0.314 2.637,0.415c2.084,0.56 2.037,0.68 3.01,1.136c2.369,1.111 4.489,3.624 5.337,5.625c0.318,0.75 1.038,2.245 1.177,4.533c0.082,1.358 0.486,7.08 -3.853,10.96c-0.723,0.647 -0.715,0.871 0.035,1.767c0.287,0.342 0.28,0.344 3.523,4.327c0.795,0.976 0.914,1.016 0.755,1.277c-0.178,0.291 -0.796,0.181 -1.349,0.176c-5.24,-0.049 -5.7,0.218 -6.346,-0.492c-0.109,-0.12 -1.765,-2.276 -1.95,-2.574c-0.918,-1.485 -1.26,-1.24 -2.224,-1.108c-1.913,0.261 -4.627,-0.212 -5.26,-0.433c-2.318,-0.811 -4.213,-1.99 -5.677,-3.71c-0.752,-0.883 -1.528,-2.028 -1.948,-2.988c-0.849,-1.941 -0.999,-2.791 -1.169,-4.543c-0.621,-6.403 2.982,-10.143 3.655,-10.77c0.434,-0.404 1.705,-1.413 2.122,-1.651c1.83,-1.044 2.179,-1.203 4.541,-1.719Zm3.765,19.944c0.126,-0.027 5.212,-0.684 5.008,-7.702c-0.076,-2.619 -1.533,-4.933 -2.765,-5.663c-0.781,-0.463 -1.752,-1.26 -4.522,-1c-2.187,0.205 -5.939,2.032 -5.493,8.158c0.167,2.287 1.272,4.044 2.172,4.813c2.602,2.221 5.458,1.418 5.6,1.394Z" style="fill:#07427c;"/><path d="M152.656,66.824c-0.005,0.429 0.454,4.799 -4.681,6.526c-1.852,0.623 -2.557,0.451 -11.703,0.49c-3.608,0.015 -3.633,-0.027 -3.809,-0.198c-0.398,-0.386 -0.187,-0.499 -0.211,-22.229c-0.001,-0.61 -0.012,-2.502 0.024,-2.599c0.227,-0.605 0.894,-0.523 1.364,-0.524c10.384,-0.033 10.385,-0.038 11.28,0.081c0.346,0.046 6.834,0.206 7.11,6.425c0.03,0.678 -0.08,2.711 -1.214,4.033c-0.756,0.882 -1.263,1.152 -1.394,1.221c-0.252,0.134 -0.25,0.128 -0.453,0.335c-0.188,0.192 -0.115,0.23 0.021,0.461c0.149,0.253 1.631,0.861 2.309,1.846c0.977,1.418 1.191,1.846 1.356,4.131Zm-9.223,-13.326c-0.331,-0.027 -1.775,-0.145 -4.146,-0.076c-0.058,0.002 -0.492,0.014 -0.666,0.299c-0.041,0.066 -0.13,0.066 -0.113,3.705c0.001,0.147 -0.122,1.055 0.773,1.106c0.121,0.007 3.103,0.004 3.755,-0.025c3.389,-0.152 2.754,-3.32 2.218,-4.063c-0.659,-0.913 -1.65,-0.913 -1.821,-0.946Zm-0.03,9.733c-0.329,-0.004 -3.787,-0.05 -4.117,-0.022c-0.079,0.007 -0.7,0.06 -0.795,0.6c-0.007,0.04 0.005,4.087 0.012,4.143c0.007,0.064 0.06,0.543 0.426,0.678c0.164,0.061 1.014,0.063 1.102,0.063c3.459,0.009 3.457,0.012 3.757,-0.015c1.646,-0.148 2.427,-1.158 2.516,-2.245c0.238,-2.894 -2.1,-3.084 -2.9,-3.202Z" style="fill:#07427c;"/><path d="M116.73,69.243c-4.226,0.098 -4.37,-0.133 -4.704,0.341c-0.388,0.549 -1.063,3.765 -1.64,4.068c-0.494,0.259 -1.006,0.166 -5.305,0.191c-0.466,0.003 -1.157,0.08 -0.823,-1.027c0.345,-1.146 0.484,-1.091 0.942,-2.576c0.132,-0.428 6.527,-18.035 6.558,-18.112c0.82,-2.007 1.05,-3.635 1.95,-3.811c0.028,-0.005 6.017,-0.078 6.418,0.048c0.517,0.162 0.464,0.293 1.945,4.146c0.363,0.944 0.289,0.964 0.68,1.906c0.685,1.648 0.591,1.674 1.243,3.339c0.288,0.735 1.051,3.038 2.11,5.693c0.244,0.611 1.227,3.388 1.332,3.683c0.005,0.013 0.657,1.597 1,2.68c0.24,0.759 1.228,3.17 1.235,3.386c0.002,0.052 0.016,0.498 -0.226,0.604c-0.003,0.001 -0.002,0.04 -4.07,0.033c-1.216,-0.002 -1.999,0.115 -2.353,-0.57c-0.714,-1.385 -1.047,-3.665 -1.732,-3.919c-0.369,-0.137 -1.474,-0.11 -4.56,-0.102Zm-2.026,-7.735c-0.636,1.825 -0.787,2.359 -0.526,2.594c0.232,0.209 0.281,0.105 4.433,0.136c0.036,0 0.819,0.077 1.012,-0.151c0.269,-0.316 0.063,-0.373 -1.086,-3.625c-0.396,-1.122 -0.341,-1.135 -0.764,-2.251c-0.497,-1.312 -0.583,-2.483 -0.759,-2.546c-0.384,-0.138 -0.481,-0.099 -0.572,0.303c-0.182,0.805 -0.078,0.833 -0.757,2.618c-0.34,0.895 -0.246,0.921 -0.981,2.922Z" style="fill:#07427b;"/><path d="M164.462,69.242c-0.8,0.002 -1.97,-0.061 -2.27,0.193c-0.625,0.531 -1.109,3.917 -1.806,4.249c-0.587,0.279 -0.622,0.132 -5.319,0.15c-0.543,0.002 -1.094,0.019 -0.795,-1.01c0.032,-0.111 6.399,-17.64 6.408,-17.662c1.212,-3.02 1.988,-5.973 2.484,-6.539c0.383,-0.437 0.484,-0.318 4.302,-0.327c2.301,-0.006 2.721,-0.093 3.114,0.408c0.372,0.475 0.865,2.319 1.359,3.476c0.112,0.262 0.093,0.267 1.252,3.334c0.358,0.949 0.281,0.968 0.669,1.91c0.661,1.601 0.749,2.301 1.239,3.333c0.336,0.708 0.493,1.579 2.107,5.701c0.03,0.078 1.017,2.771 1.105,3.012c0.042,0.116 0.026,0.117 0.509,1.453c0.742,2.05 1.006,2.055 0.75,2.727c-0.089,0.233 -0.185,0.196 -4.586,0.196c-1.396,-0 -1.754,0.162 -2.188,-1.037c-1.029,-2.845 -0.839,-3.41 -1.927,-3.541c-0.152,-0.018 -0.152,-0.042 -6.408,-0.027Zm4.391,-8.008c-0.559,-1.514 -0.454,-1.543 -1.048,-3.041c-0.471,-1.187 -0.401,-1.712 -0.669,-2.315c-0.127,-0.287 -0.214,-0.228 -0.487,-0.075c-0.357,0.201 -0.195,0.306 -0.306,0.872c-0.163,0.829 -1.127,3.198 -1.987,5.982c-0.271,0.879 -0.79,1.617 0.477,1.617c4.188,0.001 4.193,0.096 4.546,0.005c0.363,-0.093 0.357,-0.417 0.356,-0.464c-0.006,-0.307 -0.803,-2.378 -0.881,-2.581Z" style="fill:#07427c;"/><path d="M209.729,64.552c-0.023,-1.287 -0.014,-1.286 -0.027,-11.637c-0.005,-4.17 -0.09,-4.477 0.593,-4.603c0.11,-0.02 5.111,-0.04 5.303,0.011c0.606,0.159 0.461,0.505 0.476,4.592c0.044,11.741 -0.218,11.889 0.663,13.51c1.312,2.413 6.995,2.73 7.802,-1.492c0.226,-1.181 0.156,-1.19 0.135,-15.023c-0.002,-1.179 -0.138,-1.615 1.045,-1.618c4.511,-0.014 4.547,-0.076 4.872,0.139c0.367,0.243 0.3,0.962 0.302,3.358c0.01,12.194 0.058,12.197 -0.15,13.927c-0.59,4.927 -5.332,9.407 -12.899,8.146c-0.38,-0.063 -2.461,-0.41 -4.409,-1.932c-3.212,-2.51 -3.541,-6.407 -3.708,-7.377Z" style="fill:#06427b;"/><path d="M287.332,68.097c1.745,0.243 4.239,0.444 6.08,-2.379c0.641,-0.983 0.84,-0.827 2.968,-0.803c3.314,0.037 4.04,-0.133 4.126,0.405c0.033,0.206 -0.98,4.748 -5.576,7.255c-0.089,0.049 -1.872,0.858 -2.671,1.064c-0.201,0.052 -4.462,1.064 -7.949,-0.326c-1.204,-0.48 -3.155,-1.119 -5.342,-3.758c-1.182,-1.426 -2.126,-3.666 -2.383,-5.012c-1.366,-7.137 1.706,-11.015 1.833,-11.202c0.236,-0.346 1.699,-2.492 3.781,-3.626c0.328,-0.179 2.326,-1.439 5.909,-1.735c2.145,-0.177 5.199,0.599 6.345,1.266c0.879,0.511 3.995,1.757 5.818,6.625c0.579,1.547 -0.423,1.291 -1.26,1.29c-4.704,-0.007 -4.878,0.174 -5.306,-0.455c-0.864,-1.273 -2.008,-3.201 -5.956,-2.889c-1.839,0.145 -4.694,1.935 -5.119,5.88c-0.353,3.275 0.497,4.824 0.699,5.191c0.651,1.185 0.765,1.542 2.058,2.448c0.848,0.594 1.869,0.742 1.945,0.761Z" style="fill:#595959;"/><path d="M241.153,48.167c1.02,-0.156 1.014,-0.155 1.102,-0.168c2.069,-0.314 5.911,0.238 7.962,1.822c2.343,1.81 2.657,3.949 2.818,4.626c0.106,0.444 0.332,1.189 -0.608,1.254c-0.195,0.014 -4.837,0.008 -4.914,0.006c-1.394,-0.037 -0.965,-0.777 -1.607,-1.58c-1.648,-2.06 -4.685,-1.283 -4.99,0.69c-0.422,2.738 3.894,3.398 6.612,4.471c1.703,0.672 6.074,2.107 5.948,7.156c-0.136,5.455 -5.319,8.804 -12.744,7.247c-0.91,-0.191 -2.752,-1.027 -3.248,-1.383c-2.787,-2 -3.051,-4.329 -3.206,-5.094c-0.221,-1.09 0.223,-1.189 0.839,-1.194c4.852,-0.042 4.863,-0.081 5.264,0.047c0.892,0.285 0.361,2.521 3.026,2.892c3.701,0.516 4.067,-2.976 2.608,-4.013c-2.912,-2.069 -8.388,-1.997 -10.754,-5.729c-1.376,-2.17 -1.508,-6.616 1.489,-9.165c1.539,-1.309 4.028,-1.81 4.404,-1.886Z" style="fill:#07417b;"/><path d="M304.037,65.316c0,-2.88 0,-5.761 0.001,-8.641c0.005,-7.908 -0.058,-8.002 0.256,-8.24c0.155,-0.117 1.017,-0.119 1.106,-0.119c4.058,-0.008 4.057,-0.011 4.145,-0.004c0.914,0.075 0.678,0.827 0.683,3.851c0.027,15.022 0.008,15.022 0.049,15.786c0.02,0.374 0.106,0.74 0.752,0.821c0.297,0.037 5.541,0.01 6.022,0.007c1.243,-0.006 1.725,-0.192 1.729,1.049c0.001,0.241 0.009,2.954 0.007,3.009c-0.024,0.671 0.016,0.813 -0.628,0.984c-0.08,0.021 -7.935,0.012 -8.625,0.011c-5.014,-0.006 -5.066,0.009 -5.289,-0.22c-0.208,-0.215 -0.193,-0.491 -0.206,-4.159c-0,-1.379 -0.001,-2.758 -0.001,-4.137Z" style="fill:#595958;"/><path d="M45.641,88.19c-1.916,1.981 -1.924,1.994 -2.154,2.054c-0.75,0.193 -1.424,-0.812 -2.088,-1.442c-1.57,-1.491 -1.916,-1.822 -0.971,-2.818c0.852,-0.898 2.262,-2.235 2.462,-2.426c0.293,-0.278 0.231,-0.337 3.551,-3.589c0.199,-0.195 1.374,-1.346 2.424,-2.494c0.732,-0.8 -0.047,-1.238 -0.855,-2.064c-7.989,-8.167 -8.253,-8.096 -8.179,-8.587c0.109,-0.723 1.252,-1.516 2.399,-2.712c0.796,-0.83 1.049,-1 1.855,-0.186c11.002,11.119 11.048,11.064 11.949,12.082c0.959,1.083 0.021,1.686 -0.467,2.185c-0.053,0.055 -8.166,8.204 -9.367,9.424c-0.097,0.098 -0.081,0.103 -0.178,0.2c-0.03,0.03 -0.028,0.028 -0.379,0.373Z" style="fill:#5a5959;"/><path d="M324.191,48.314c2.161,-0 2.899,-0.02 3.027,0.008c0.058,0.013 0.4,0.088 0.545,0.496c0.09,0.252 0.014,0.262 0.018,3.347c0.004,2.444 -0.029,2.435 -0.026,4.885c0.009,4.51 0.017,9.021 0.026,13.531c-0,1.499 0.062,2.777 -0.189,3.023c-0.27,0.265 -0.623,0.23 -4.528,0.218c-1.093,-0.004 -1.477,0.105 -1.495,-0.986c-0.008,-0.489 -0.005,-16.942 -0.004,-18.416c0.001,-5.181 -0.067,-5.188 0.042,-5.625c0.15,-0.605 0.988,-0.47 2.585,-0.48Z" style="fill:#595a5a;"/><path d="M195.285,98.186c-0.03,-0.002 -2.818,0.387 -4.342,-2.516c-0.373,-0.711 -1.777,-4.803 1.412,-7.318c0.17,-0.134 1.018,-0.803 2.545,-0.908c0.791,-0.055 2.152,0.298 2.915,0.976c0.216,0.192 0.178,0.275 0.469,0.295c0.593,0.042 0.432,-0.251 0.387,-0.846c-0.055,-0.72 -0.06,-3.265 -0.035,-3.388c0.157,-0.765 1.341,-0.601 1.553,-0.399c0.271,0.258 0.225,0.324 0.232,6.041c0.003,2.198 -0.018,3.905 -0.003,6.017c0.004,0.51 0.058,1.361 -0.117,1.589c-0.436,0.569 -1.473,0.387 -1.578,-0.12c-0.103,-0.496 0.07,-0.771 -0.436,-0.713c-0.367,0.042 -0.443,0.732 -1.877,1.133c-0.572,0.16 -1.062,0.151 -1.126,0.157Zm0.784,-8.982l-0.788,-0.079c-3.278,0.045 -3.893,4.718 -2.12,6.501c2.153,2.165 5.101,0.596 5.395,-2.134c0.389,-3.619 -2.217,-4.192 -2.487,-4.289Z" style="fill:#5a5a5a;"/><path d="M174.629,96.699c-0.232,0.006 -0.539,0.82 -1.908,1.287c-1.77,0.604 -4.272,-0.067 -5.276,-1.835c-0.44,-0.774 -1.492,-2.558 -0.654,-5.251c0.532,-1.71 1.52,-2.37 2.112,-2.769c0.855,-0.575 3.619,-1.254 5.296,0.547c0.075,0.08 0.086,0.218 0.409,0.225c0.555,0.012 0.05,-0.968 0.699,-1.169c0.107,-0.033 1.126,-0.348 1.321,0.472c0.016,0.067 0.094,9.104 -0.045,9.478c-0.149,0.402 -0.773,0.383 -0.848,0.381c-0.956,-0.029 -0.764,-1.039 -0.819,-1.146c-0.115,-0.225 -0.258,-0.221 -0.287,-0.221Zm0.15,-3.166c0.013,-0.138 0.248,-0.984 -0.206,-2.269c-0.262,-0.743 -0.608,-1.094 -0.684,-1.172c-1.981,-2.015 -4.874,-0.598 -5.383,1.514c-0.827,3.433 1.95,5.825 4.186,4.819c1.836,-0.825 1.965,-2.359 2.086,-2.893Z" style="fill:#5b5a5a;"/><path d="M302.433,96.951c-0.089,0.1 -0.365,0.673 -1.551,1.041c-2.129,0.659 -4.338,-0.222 -5.259,-1.852c-0.449,-0.795 -0.891,-1.376 -0.945,-3.383c-0.061,-2.264 1.575,-4.574 3.171,-4.991c3.612,-0.946 4.532,1.091 4.628,1.094c0.048,0.002 0.588,-0.439 0.683,-0.692c0.207,-0.551 0.031,-0.464 0.743,-0.476c1.124,-0.019 0.873,0.619 0.887,2.803c0.045,7.037 -0.026,7.04 -0.078,7.177c-0.206,0.534 -1.48,0.459 -1.642,0.015c-0.044,-0.12 -0.013,-0.258 -0.049,-0.38c-0.106,-0.361 -0.235,-0.223 -0.587,-0.355Zm0.498,-4.194c-0.024,-0.456 0.061,-1.388 -0.738,-2.388c-0.1,-0.125 -0.699,-0.876 -1.641,-1.137c-1.533,-0.426 -2.522,0.412 -2.672,0.513c-1.504,1.004 -1.724,3.62 -0.777,5.283c0.705,1.237 2.357,2.025 3.748,1.396c2.235,-1.01 2.064,-3.324 2.079,-3.667Z" style="fill:#5b5a5a;"/><path d="M56.823,87.12c0.084,-1.065 -0.052,-1.148 0.258,-1.353c0.182,-0.12 0.203,-0.152 12.669,-0.131c5.178,0.009 5.679,-0.125 5.848,0.413c0.08,0.253 0.088,0.281 0.047,3.32c-0.004,0.266 0.084,0.933 -0.647,1.017c-0.159,0.018 -5.635,0.033 -12.012,0.012c-5.566,-0.019 -5.732,0.071 -6.026,-0.267c-0.157,-0.18 -0.127,-1.19 -0.137,-3.012Z" style="fill:#5a5959;"/><path d="M122.738,98.182c-0.225,-0.017 -1.81,-0.139 -2.696,-0.82c-0.444,-0.341 -2.715,-1.872 -1.897,-6.128c0.524,-2.726 3.108,-3.819 4.974,-3.735c4.263,0.191 5.918,4.561 4.415,7.842c-1.465,3.196 -4.476,2.829 -4.795,2.842Zm-2.706,-6.962c-0.062,0.243 -0.694,1.56 0.047,3.428c1.386,3.498 6.562,2.143 6.153,-2.278c-0.202,-2.19 -2.298,-4.063 -4.604,-2.976c-1.203,0.567 -1.591,1.816 -1.595,1.825Z" style="fill:#5a5a5a;"/><path d="M256.397,62.69c0.017,-3.421 -0.029,-3.779 0.254,-4.005c0.208,-0.166 1.281,-0.168 1.393,-0.168c4.514,-0.006 4.505,0.012 9.02,0.006c4.987,-0.007 5.138,-0.03 5.298,0.39c0.108,0.282 0.105,0.291 0.074,3.777c-0.007,0.827 -0.041,1.023 -0.865,1.061c-0.043,0.002 -13.71,0.013 -14.277,-0.001c-1.088,-0.026 -0.84,-0.682 -0.898,-1.06Z" style="fill:#595959;"/><path d="M131.931,88.483c0.469,0.015 0.468,0.029 0.506,0.016c0.066,-0.022 0.101,-0.116 0.152,-0.163c0.179,-0.167 1.075,-1.028 2.926,-0.793c2.014,0.256 2.677,1.576 2.777,1.647c0.061,0.043 0.181,0.051 0.255,0.051c0.188,-0.001 0.184,-0.006 0.384,-0.208c0.191,-0.193 0.179,-0.198 0.367,-0.394c1.725,-1.801 4.211,-1.098 4.968,-0.537c1.469,1.088 1.812,2.512 1.825,4.277c0.006,0.83 -0.009,4.855 -0.011,4.889c-0.056,0.943 -1.263,0.977 -1.674,0.466c-0.256,-0.318 -0.08,-3.614 -0.142,-5.734c-0.097,-3.344 -3.696,-3.755 -4.896,-1.459c-0.559,1.069 -0.235,5.15 -0.313,6.735c-0.062,1.26 -1.592,0.786 -1.738,0.405c-0.18,-0.468 0.032,-4.463 -0.139,-6.077c-0.197,-1.865 -2.062,-3.455 -4.286,-1.853c-1.498,1.079 -0.763,5.721 -0.921,7.503c-0.065,0.728 -0.517,0.8 -0.962,0.784c-0.922,-0.032 -0.873,-0.59 -0.875,-1.147c-0.002,-0.662 -0.019,-7.328 0.002,-8.276c0.008,-0.347 0.009,-0.906 0.874,-0.904c0.829,0.002 0.803,0.467 0.919,0.772Z" style="fill:#5b5a5a;"/><path d="M162.721,92.379c-0.013,-0.297 0.053,-0.958 -0.385,-1.94c-0.72,-1.614 -3.324,-1.925 -4.494,0.136c-0.721,1.271 -0.056,6.249 -0.414,7.127c-0.169,0.416 -1.195,0.425 -1.489,0.175c-0.524,-0.445 0.028,-4.722 -0.353,-6.658c-0.565,-2.872 -3.952,-2.736 -4.928,-0.306c-0.444,1.105 -0.1,6.046 -0.265,6.679c-0.13,0.5 -1.693,0.858 -1.77,-0.323c-0.016,-0.25 -0.013,-8.889 0.016,-9.033c0.159,-0.772 1.098,-0.544 1.2,-0.519c0.566,0.138 0.632,0.576 0.66,0.592c0.382,0.225 0.415,0.134 0.78,-0.108c2.151,-1.426 4.26,-0.362 4.975,0.353c0.424,0.424 0.287,0.64 0.726,0.658c0.514,0.021 0.362,-0.285 1.39,-1.075c1.079,-0.83 2.894,-0.69 3.858,-0.324c0.883,0.336 1.787,1.441 2.07,2.357c0.346,1.116 0.265,7.17 0.156,7.466c-0.181,0.494 -1.422,0.594 -1.699,-0.044c-0.048,-0.112 -0.015,-1.02 -0.035,-5.215Z" style="fill:#5c5b5a;"/><path d="M323.066,98.188c-0.315,-0.021 -0.319,0.053 -1.146,-0.075c-4.108,-0.635 -5.111,-6.09 -2.8,-8.9c0.031,-0.038 1.438,-2.247 5.043,-1.575c1.163,0.217 1.957,0.961 2.309,1.333c1.337,1.414 1.551,4.041 0.994,4.371c-0.557,0.329 -6.96,0.053 -7.355,0.269c-0.616,0.337 0.097,1.402 0.164,1.502c1.433,2.139 3.699,1.957 5.099,0.316c0.194,-0.227 0.481,-0.678 1.436,-0.649c0.067,0.002 0.747,0.022 0.605,0.573c-0.1,0.389 -1.121,1.898 -2.062,2.351c-1.136,0.547 -2.25,0.482 -2.286,0.483Zm0.802,-8.968c-0.091,-0.017 -1.133,-0.42 -2.312,0.144c-0.131,0.063 -0.802,0.384 -1.329,1.238c-0.569,0.922 -0.506,1.403 0.582,1.39c4.126,-0.049 4.232,0.04 4.507,-0.006c0.766,-0.129 0.568,-1.272 -0.429,-2.175c-0.443,-0.402 -0.477,-0.34 -1.019,-0.591Z" style="fill:#5a5a59;"/><path d="M275.709,98.19c-0.333,-0.023 -0.336,0.05 -1.145,-0.077c-4.741,-0.743 -4.943,-7.476 -2.246,-9.501c0.395,-0.297 1.487,-1.375 4.124,-1.006c3.851,0.539 4.443,5.335 3.694,5.771c-0.287,0.168 -1.624,0.135 -5.555,0.154c-0.883,0.004 -1.828,-0.111 -1.99,0.289c-0.436,1.078 1.907,4.005 4.642,2.35c0.873,-0.528 0.821,-1.433 2.225,-1.404c1.598,0.033 -0.467,2.498 -1.455,2.955c-1.152,0.533 -2.277,0.468 -2.294,0.468Zm-1.175,-8.966c-0.785,0.352 -0.83,0.304 -1.382,0.964c-0.71,0.849 -0.743,1.751 -0.074,1.809c0.131,0.011 3.802,-0.016 4.133,-0.019c0.083,-0.001 0.855,-0.006 1.029,-0.124c0.597,-0.403 -0.379,-2.686 -2.536,-2.77c-0.549,-0.021 -0.541,0.032 -1.17,0.14Z" style="fill:#5a5959;"/><path d="M236.622,98.217c-0.713,-0.045 -0.708,-0.044 -0.77,-0.049c-2.508,-0.208 -3.935,-2.243 -4.252,-3.885c-0.754,-3.904 1.643,-5.689 2.049,-5.991c0.935,-0.696 2.474,-0.799 2.971,-0.776c1.739,0.078 2.658,0.82 3.223,1.283c1.239,1.015 1.915,4.145 1.196,4.573c-0.177,0.106 -1.298,0.129 -1.412,0.131c-2.196,0.045 -5.578,0.034 -5.632,0.038c-0.783,0.062 -0.457,1.019 -0.426,1.109c0.624,1.826 2.855,2.403 4.135,1.771c1.46,-0.721 1.039,-1.485 2.305,-1.626c1.126,-0.126 1.144,0.485 0.497,1.42c-1.377,1.99 -3.065,1.933 -3.884,2.003Zm1.138,-8.866c-0.151,-0.045 -0.288,-0.132 -0.439,-0.178c-1.158,-0.347 -3.077,0.204 -3.675,1.715c-0.428,1.082 0.233,1.109 0.721,1.107c4.144,-0.016 4.146,0.028 4.5,-0.037c0.108,-0.02 0.884,-0.163 0.214,-1.359c-0.453,-0.809 -0.55,-0.728 -1.321,-1.249Z" style="fill:#5a5959;"/><path d="M110.34,98.161c-0.866,-0.034 -2.772,0.026 -4.61,-1.932c-3.352,-3.571 -1.925,-11.331 4.227,-11.543c0.307,-0.011 3.281,-0.457 5.382,2.35c0.768,1.027 1.179,1.734 -0.102,1.745c-1.736,0.015 -1.355,-1.446 -2.994,-2.092c-0.14,-0.055 -1.889,-1.045 -4.103,0.151c-2.85,1.54 -3.38,6.848 -0.133,9.048c1.801,1.22 4.231,0.898 5.643,-0.933c0.404,-0.524 0.39,-0.917 1.573,-0.941c0.435,-0.009 0.511,-0.118 0.759,0.242c0.151,0.22 -0.092,0.646 -0.12,0.695c-1.794,3.15 -3.935,3.166 -5.521,3.21Z" style="fill:#595959;"/><path d="M181.202,92.374c-0.002,1.505 -0.004,3.01 -0.006,4.515c-0,0.085 -0.002,0.827 -0.277,1.022c-0.105,0.074 -1.474,0.52 -1.55,-0.635c-0.002,-0.03 -0.015,-7.405 -0.02,-8.276c-0.005,-0.974 -0.084,-1.312 0.894,-1.311c0.807,0 1.378,0.808 1.437,0.811c0.057,0.002 -0.05,-0.131 0.526,-0.482c1.111,-0.677 4.689,-1.199 5.892,2.122c0.211,0.582 0.301,0.588 0.278,6.748c-0.002,0.476 0.095,1.196 -0.99,1.141c-0.267,-0.013 -0.799,-0.036 -0.848,-0.752c-0.102,-1.486 0.308,-5.904 -0.445,-7.048c-0.924,-1.404 -2.695,-1.334 -3.546,-0.783c-1.43,0.927 -1.317,2.326 -1.344,2.929Z" style="fill:#5c5c5c;"/><path d="M226.137,89.282c-0.989,-0.228 -1.007,-0.36 -1.969,-0.052c-0.597,0.191 -1.134,0.738 -1.316,0.987c-0.882,1.204 -0.338,6.665 -0.565,7.406c-0.157,0.511 -1.686,0.844 -1.763,-0.361c-0.005,-0.074 -0.007,-8.85 0.016,-9.003c0.127,-0.823 1.399,-0.649 1.683,-0.274c0.208,0.275 0.149,0.395 0.493,0.393c0.109,-0.001 0.103,-0.025 0.787,-0.437c0.344,-0.207 1.306,-0.448 1.842,-0.471c2.073,-0.089 3.498,1.359 3.947,2.711c0.322,0.97 0.234,7.222 0.144,7.443c-0.179,0.44 -1.085,0.49 -1.421,0.315c-0.453,-0.236 -0.337,-1.322 -0.333,-2.177c0.023,-5.182 0.047,-5.476 -1.546,-6.48Z" style="fill:#5a5a59;"/><path d="M252.949,90.124c0.063,-1.773 0.014,-1.775 0.048,-1.925c0.191,-0.839 1.467,-0.483 1.6,-0.271c0.105,0.168 0.095,0.394 0.207,0.558c0.047,0.069 0.151,0.089 0.234,0.091c0.259,0.005 0.239,-0.058 0.429,-0.235c1.404,-1.303 4.039,-0.822 4.872,-0.151c1.236,0.994 1.576,2.062 1.604,3.809c0.007,0.422 0.065,4.12 0,5.277c-0.066,1.176 -1.527,0.819 -1.69,0.383c-0.139,-0.374 -0.023,-4.404 -0.076,-5.65c-0.157,-3.714 -4.137,-3.676 -5.163,-1.145c-0.453,1.118 -0.168,5.015 -0.253,6.409c-0.007,0.115 -0.06,0.978 -1.231,0.754c-0.799,-0.153 -0.583,-1.472 -0.555,-2.267c0.008,-0.224 -0.011,-5.166 -0.028,-5.636Z" style="fill:#5a5a5a;"/><path d="M311.79,98.216c-0.257,-0.027 -0.516,-0.033 -0.773,-0.06c-1.341,-0.138 -2.511,-0.955 -2.986,-1.644c-2.934,-4.254 -0.267,-10.422 5.669,-8.734c1.316,0.374 2.858,2.321 2.424,2.973c-0.218,0.327 -1.122,0.218 -1.336,0.15c-0.646,-0.206 -1.054,-1.657 -2.634,-1.801c-4.47,-0.41 -4.497,7.17 -0.753,7.543c2.158,0.215 2.879,-1.416 3.045,-1.613c0.558,-0.657 1.784,-0.514 1.829,-0.018c0.018,0.198 -0.236,0.728 -0.264,0.788c-1.211,2.534 -3.794,2.387 -4.22,2.416Z" style="fill:#575757;"/><path d="M292.627,89.16c-0.505,0.057 -1.18,-0.188 -1.195,0.961c-0.007,0.511 0.04,0.506 -0.005,6.392c-0.001,0.087 -0.007,0.945 -0.05,1.09c-0.155,0.526 -1.67,0.792 -1.726,-0.341c-0.007,-0.145 0.005,-7.37 -0.019,-7.517c-0.142,-0.839 -1.063,-0.405 -1.19,-1.11c-0.125,-0.694 0.277,-0.882 0.348,-0.916c0.156,-0.073 0.333,-0.092 0.487,-0.167c0.742,-0.359 -0.322,-3.169 2.583,-3.856c1.138,-0.269 1.385,-0.005 1.465,0.08c0.214,0.229 0.274,0.978 -0.264,1.208c-0.282,0.121 -1.216,0.116 -1.527,1.389c-0.415,1.698 1.089,1.235 1.44,1.294c0.062,0.01 0.455,0.077 0.577,0.527c0.023,0.083 0.213,0.785 -0.519,0.943c-0.132,0.028 -0.273,-0.008 -0.405,0.02Z" style="fill:#595958;"/><path d="M264.949,95.748c-0.162,-5.677 0.305,-6.253 -0.564,-6.588c-0.117,-0.045 -0.254,-0.02 -0.372,-0.063c-0.516,-0.188 -0.475,-0.982 -0.28,-1.192c0.399,-0.43 1.156,0.002 1.18,-1.16c0.026,-1.263 -0.244,-1.827 1.018,-1.772c1.197,0.052 0.704,1.523 0.82,2.13c0.166,0.87 1.615,0.398 2.251,0.666c0.446,0.188 0.326,0.778 0.312,0.849c-0.17,0.837 -1.695,0.351 -2.312,0.664c-0.332,0.168 -0.225,0.465 -0.243,4.598c-0.008,1.939 -0.132,2.513 1.803,2.699c1.205,0.116 0.766,1.158 0.621,1.293c-0.215,0.201 -0.909,0.198 -0.99,0.198c-1.164,-0.004 -2.46,-0.062 -3.052,-1.54c-0.201,-0.503 -0.168,-0.694 -0.19,-0.784Z" style="fill:#595858;"/><path d="M209.759,90.503c-0.055,2.631 0.01,2.622 -0.029,5.257c-0.013,0.889 0.647,0.861 0.956,0.866c3.176,0.044 3.22,-0.056 3.469,0.162c0.45,0.396 0.294,1.163 -0.456,1.256c-0.031,0.004 -5.013,0.024 -5.262,-0.036c-0.633,-0.151 -0.514,-1.082 -0.514,-1.118c-0.002,-0.903 -0.027,-10.555 -0.001,-11.283c0.048,-1.366 1.554,-0.727 1.595,-0.691c0.451,0.389 0.132,2.568 0.243,5.589Z" style="fill:#5c5b5b;"/><path d="M284.269,92.377c-0.007,5.196 0.116,5.348 -0.324,5.575c-0.206,0.106 -0.87,0.107 -1.073,0.012c-0.328,-0.152 -0.37,-0.638 -0.375,-0.702c-0.007,-0.084 -0.03,-8.314 -0.026,-8.642c0.008,-0.648 0.118,-0.848 0.735,-0.929c1.279,-0.167 0.858,1.058 1.516,0.914c0.178,-0.039 0.438,-0.771 1.901,-1.008c0.378,-0.061 0.973,-0.115 0.86,1.043c-0.094,0.969 -0.823,0.537 -1.994,1.123c-1.161,0.581 -1.203,2.458 -1.22,2.614Z" style="fill:#5a5959;"/><path d="M250.285,93.882c-0.01,3.546 0.108,3.974 -0.511,4.128c-1.244,0.31 -1.33,-0.632 -1.342,-0.754c-0,-0.005 -0.005,-11.894 0.026,-11.972c0.284,-0.727 1.573,-0.635 1.759,-0.072c0.058,0.177 0.044,0.183 0.068,8.67Z" style="fill:#5e5e5d;"/><path d="M216.063,95.009c-0.004,-2.07 -0.002,-2.064 0.002,-4.133c0.003,-1.831 -0.054,-2.781 0.225,-3.047c0.246,-0.235 1.197,-0.229 1.403,0.123c0.115,0.196 0.111,1.305 0.11,1.419c-0.032,7.268 0.024,7.261 -0.002,7.892c-0.01,0.238 -0.071,0.731 -0.72,0.79c-0.603,0.054 -0.848,-0.26 -0.895,-0.32c-0.149,-0.192 -0.12,-0.5 -0.124,-2.724Z" style="fill:#575757;"/><path d="M215.747,84.862c0.072,-0.209 0.017,-0.216 0.088,-0.421c0.009,-0.026 0.054,-0.157 0.159,-0.297c0.72,-0.964 2.14,-0.234 2.086,0.722c-0.083,1.475 -1.882,1.411 -2.24,0.416c-0.049,-0.135 -0.044,-0.285 -0.093,-0.42Z" style="fill:#555656;"/></g><defs><linearGradient id="_Linear1" x1="0" y1="0" x2="1" y2="0" gradientUnits="userSpaceOnUse" gradientTransform="matrix(66.953999,3.632067,-3.632067,66.953999,-6.298142,57.227136)"><stop offset="0" style="stop-color:#2a8cff;stop-opacity:1"/><stop offset="0.27" style="stop-color:#5772c0;stop-opacity:1"/><stop offset="0.5" style="stop-color:#6868a8;stop-opacity:1"/><stop offset="1" style="stop-color:#ce8b6e;stop-opacity:1"/></linearGradient></defs></svg>